<?xml version="1.0" encoding="UTF-8" standalone="no"?>
<!-- Created with Inkscape (http://www.inkscape.org/) -->

<svg
   xmlns:dc="http://purl.org/dc/elements/1.1/"
   xmlns:cc="http://creativecommons.org/ns#"
   xmlns:rdf="http://www.w3.org/1999/02/22-rdf-syntax-ns#"
   xmlns:svg="http://www.w3.org/2000/svg"
   xmlns="http://www.w3.org/2000/svg"
   xmlns:sodipodi="http://sodipodi.sourceforge.net/DTD/sodipodi-0.dtd"
   xmlns:inkscape="http://www.inkscape.org/namespaces/inkscape"
   width="5.2916675mm"
   height="5.2916675mm"
   viewBox="0 0 5.2916675 5.2916675"
   version="1.1"
   id="svg4583"
   inkscape:version="0.92.2 (5c3e80d, 2017-08-06)"
   sodipodi:docname="icon-ducatuscoin-symbol.svg">
  <defs
     id="defs4577" />
  <sodipodi:namedview
     id="base"
     pagecolor="#ffffff"
     bordercolor="#666666"
     borderopacity="1.0"
     inkscape:pageopacity="0.0"
     inkscape:pageshadow="2"
     inkscape:zoom="0.35"
     inkscape:cx="-983.0851"
     inkscape:cy="287.85716"
     inkscape:document-units="mm"
     inkscape:current-layer="g40"
     showgrid="false"
     inkscape:window-width="1920"
     inkscape:window-height="986"
     inkscape:window-x="-11"
     inkscape:window-y="-11"
     inkscape:window-maximized="1" />
  <metadata
     id="metadata4580">
    <rdf:RDF>
      <cc:Work
         rdf:about="">
        <dc:format>image/svg+xml</dc:format>
        <dc:type
           rdf:resource="http://purl.org/dc/dcmitype/StillImage" />
        <dc:title />
      </cc:Work>
    </rdf:RDF>
  </metadata>
  <g
     inkscape:label="Layer 1"
     inkscape:groupmode="layer"
     id="layer1"
     transform="translate(-5.0233419,-219.70387)">
    <g
       transform="matrix(0.43904454,0,0,0.55321969,-47.63127,-63.387669)"
       id="g40">
      <g
         id="g843"
         transform="matrix(0.02684975,0,0,0.02409639,116.70991,508.72052)">
        <g
           inkscape:export-ydpi="96"
           inkscape:export-xdpi="96"
           id="g16"
           transform="matrix(1.4191391,0,0,1.2028986,-50.267351,-25.225363)">
          <path
             id="path2"
             d="m 267.657,251.925 c 3.575,-14.808 -9.886,-19.06 -11.978,-30.694 -0.958,-0.042 -1.037,-0.96 -2.246,-0.749 0.053,8.624 8.588,13.206 10.481,20.963 0.783,3.203 -2.664,10.188 3.743,10.48 z"
             inkscape:connector-curvature="0"
             style="fill:#be0a26" />
          <path
             id="path4"
             d="m 214.503,239.198 c -2.099,-9.757 10.962,-10.374 19.465,-11.978 -8.786,-7.637 -38.526,5.088 -19.465,11.978 z"
             inkscape:connector-curvature="0"
             style="fill:#be0a26" />
          <path
             id="path6"
             d="m 251.188,249.68 c 1.892,0.995 5.947,2.489 8.235,0.748 2.337,-11.371 -5.629,-18.791 -11.23,-24.706 2.403,7.317 14.344,18.376 2.995,23.958 z"
             inkscape:connector-curvature="0"
             style="fill:#be0a26" />
          <path
             id="path8"
             d="m 245.198,259.411 c 0.273,2.222 1.298,3.694 2.994,4.492 4.632,-13.417 -6.428,-17.491 -19.465,-15.722 4.086,5.148 7.255,11.214 16.471,11.23 z m 0,-4.491 c -4.162,0.418 -7.14,-0.347 -7.486,-3.744 3.757,-0.014 7.924,-0.439 7.486,3.744 z"
             inkscape:connector-curvature="0"
             style="fill:#be0a26" />
          <path
             id="path10"
             d="m 251.936,254.171 c 0.392,6.433 -1.239,12.064 0.749,14.225 -0.512,1.484 -4.459,-0.467 -3.743,2.246 -0.032,1.03 0.354,1.644 0.748,2.247 4.958,-3.097 10.144,-15.581 2.246,-18.718 z"
             inkscape:connector-curvature="0"
             style="fill:#be0a26" />
          <path
             id="path12"
             d="m 221.989,256.417 c -4.063,11.36 10.735,14.174 17.968,14.225 -6.531,-4.2 -14.908,-6.554 -17.968,-14.225 z"
             inkscape:connector-curvature="0"
             style="fill:#be0a26" />
          <path
             id="path14"
             d="m 249.689,291.604 c -3.569,-1.747 -10.551,2.047 -12.727,-2.246 -0.162,-2.906 4.518,-0.971 4.492,-3.743 -4.211,-3.616 -9.282,8.473 -16.471,2.246 -0.168,1.416 0.844,1.651 0.748,2.995 2.363,0.367 2.645,-1.348 5.241,-0.749 1.507,1.988 0.028,6.96 2.246,8.235 1.601,-4.705 14.07,-0.844 16.471,-6.738 z"
             inkscape:connector-curvature="0"
             style="fill:#be0a26" />
        </g>
        <path
           inkscape:export-ydpi="96"
           inkscape:export-xdpi="96"
           id="path34"
           d="m 568.80937,321.33212 c -0.009,-1.0766 -0.0227,-2.14357 -0.044,-3.18889 -0.004,-0.22494 -0.003,-0.45108 -0.009,-0.67603 l -0.009,0.004 c -0.1334,-5.52972 -0.45129,-10.49288 -0.85858,-13.98008 l -0.009,-0.005 c -0.1192,-1.17042 -0.23841,-2.33843 -0.37749,-3.50163 l 0.0114,-0.005 c -0.17172,-1.46392 -0.35621,-2.92304 -0.56056,-4.37373 -0.81459,-5.71257 -1.79238,-11.3686 -3.12069,-16.86585 -0.13908,-0.5834 -0.29092,-1.15959 -0.43568,-1.74059 l -144.62162,124.27867 -0.0851,-0.0734 -4.68458,4.04655 c -23.05675,22.19589 -56.31286,35.21606 -95.12347,35.42777 6.39464,-13.22467 21.1324,-19.21871 31.94198,-28.54358 10.7741,-9.29239 11.37582,-21.55594 16.99987,-36.09057 1.06719,5.39861 -2.34158,14.55869 2.12445,17.07635 13.39383,-10.51333 19.94458,-32.55284 11.68661,-51.34933 2.77867,-1.05374 4.57105,2.76907 4.2489,-0.90939 1.62775,-17.29167 -6.90127,-30.77376 -13.81106,-37.82755 5.09045,1.38934 7.07867,5.40462 12.74954,6.30078 -1.48583,-17.91838 -17.17584,-28.84431 -24.43615,-44.12833 -1.0232,-2.15199 0.044,-4.52771 -1.06294,-7.20537 -3.77633,-9.13962 -16.88917,-14.31088 -19.12431,-21.61488 -2.36287,-7.72502 2.90213,-14.72107 -2.12588,-21.61368 -5.7915,-2.23138 -12.54944,0.0505 -16.99986,1.70451 -3.20016,-4.00566 -6.54223,-7.94996 -10.2547,-11.55866 h 7.10421 c 38.06841,0 70.85903,12.284 94.00235,33.46705 l 77.63401,-66.69592 C 446.62859,141.55051 388.46092,124.325 320.59343,124.325 H 119.93 v 396.95652 h 195.99304 c 1.67884,0 3.34491,-0.0204 5.01098,-0.0397 l 0.006,0.0397 c 127.77786,0 221.00395,-61.06153 243.06731,-154.41248 1.31979,-5.47559 2.11025,-11.19056 2.92342,-16.87787 0.20436,-1.45069 0.41297,-2.89778 0.58469,-4.36171 l -0.0114,-0.005 c 0.27532,-2.324 0.31647,-2.71614 0.48251,-4.48801 0.56198,-5.37936 0.80323,-11.39626 0.82736,-17.18341 0.001,-0.249 0.01,-0.49559 0.01,-0.74459 l -0.006,-0.002 c 0,-0.26945 -0.003,-0.53408 -0.003,-0.80233 l 0.009,-0.004 c 0,-0.35726 -0.0128,-0.71212 -0.0142,-1.06817 z M 330.6381,415.60087 c 3.25124,-11.65368 7.49873,-22.46052 10.62367,-34.22126 6.86722,-2.58383 9.90275,-8.41788 12.74955,-14.40952 4.0488,22.04552 -10.42074,40.99358 -23.37322,48.63078 z m 44.62341,-43.22736 c -3.45845,-10.6637 -12.64311,-23.7356 -6.37478,-36.92297 6.73098,8.55381 13.10433,25.04675 6.37478,36.92297 z m 6.37477,-39.62468 c -6.50817,-1.39657 -11.9747,-11.45641 -12.74955,-20.71271 7.5853,4.07662 8.98599,13.39547 12.74955,20.71271 z M 363.5749,285.02022 c 10.90892,0.95871 14.18571,8.38661 15.93551,17.11003 -6.13494,-5.00406 -17.24112,-5.79918 -15.93551,-17.11003 z m -97.79288,-80.09981 c 0.85148,2.40579 3.50102,4.98962 3.23422,7.85853 -3.57056,-2.67645 -7.11698,-5.45274 -10.91034,-7.85853 z m 0.0568,206.31394 c -2.16703,11.97967 -4.44191,22.23678 -9.60616,29.45417 h -10.30862 c 4.94995,-20.44927 -6.6586,-50.11155 13.83944,-59.17058 -9.70691,2.2398 -16.36977,8.57787 -20.62719,16.69744 V 351.4142 c 5.67656,-2.58142 12.95958,-5.21456 19.56568,-6.95756 -3.79053,9.69416 -12.9312,14.98571 -18.21749,23.41442 10.13691,0.10345 18.06989,-9.1697 31.79581,-9.0061 -1.26162,5.6885 -8.07065,10.9969 -6.41451,16.21026 5.86388,-1.03449 5.41543,-7.39903 11.66816,-8.10393 -4.04455,14.81851 -8.65107,27.44533 -11.69512,44.26306 z m 22.30319,-42.46232 c -0.7933,-2.77268 2.91633,-1.73097 2.12303,-4.50365 -10.08582,-6.15884 -11.42549,-34.09135 -13.84228,-30.61979 l -22.28049,-0.90097 c -1.54402,-1.39055 -5.43956,-0.7915 -8.49922,-0.89976 0.0681,-5.34569 2.83686,-8.40105 2.12587,-14.40953 -3.25693,0.84324 -2.75881,4.6047 -6.06398,5.40342 -1.04591,0.28389 -2.56723,0.41741 -2.56723,0.46432 v -31.6675 c 1.50855,6.03133 5.86956,11.39626 8.63121,15.52821 h 6.37335 c 1.65046,-3.60869 -0.8898,1.02487 0.75924,-2.77508 -0.75924,-2.4455 0,0.18284 -0.75924,-2.26266 -6.66853,-4.85249 -7.28586,-15.02059 -14.87258,-19.09481 -0.0553,0.18044 -0.0837,0.35967 -0.13198,0.5401 V 269.4908 c 2.83828,-0.29351 6.406,-1.26305 9.25279,-3.38255 -2.87801,-1.33883 -6.41451,-2.37813 -9.25279,-3.23821 v -17.12566 c 0,-0.44147 2.30469,-1.10667 2.8766,-2.15079 -0.9196,-0.49559 -2.8766,-0.90337 -2.8766,-1.23778 v -5.19171 c 0,0.0409 2.63251,0.083 3.93811,0.1251 -1.11544,-1.12832 -2.51897,-2.0329 -3.93811,-2.76907 v -9.36577 c 1.41914,0.6219 3.95089,1.36289 5.75461,2.22897 1.21621,2.83283 -1.82359,2.18928 -2.28055,3.60268 5.84259,4.65402 15.90996,5.66085 25.42245,7.20296 -4.49441,-7.59751 -16.69759,-8.69335 -21.28992,-16.20906 20.08649,-2.7005 27.18645,9.66529 44.60496,6.30439 -3.08663,-6.99124 -11.1814,-9.74227 -13.821,-17.11123 12.48133,3.22979 16.34991,13.65531 27.61787,17.91357 -3.08237,-11.82931 -19.66643,-18.15174 -34.12604,-24.16623 h 14.46813 c 1.46597,1.20289 2.72049,2.76305 3.71672,4.25705 1.21336,-0.91179 0.91535,-1.85126 0.32924,-4.25705 h 4.82649 c 10.26464,8.42029 18.72554,18.36946 26.7153,28.66988 4.34256,-2.62472 1.98111,-10.88022 5.31325,-14.3602 2.50195,0.0205 3.12779,-1.52648 6.37336,-0.87692 3.05824,5.28073 -1.12964,11.454 -1.06294,17.12206 4.73283,15.01458 26.35058,19.12007 21.25161,39.6319 0.46974,3.20332 3.84587,3.94671 5.31042,6.3068 -1.68452,4.87655 -3.40026,9.72664 -4.2489,15.31049 -3.23564,-1.45912 -4.5824,-4.52049 -8.49923,-5.40342 1.64478,-4.90903 4.97834,-8.38661 6.37477,-13.50735 -1.03455,-2.58623 -11.86684,-0.55333 -15.93551,0 0.47967,13.21986 15.91707,21.24199 18.06139,36.02321 2.50336,0.0192 3.12778,-1.55174 6.37477,-0.90098 1.32264,3.08544 7.49163,9.23827 1.06151,10.80564 0.34627,2.10989 4.63491,0.87571 5.31326,2.70171 0.18023,4.95715 -0.99056,8.76673 -6.37477,9.0061 3.40877,3.84326 1.07996,8.78597 -3.18739,10.80684 -7.10847,-4.482 -13.01067,-9.98526 -18.06138,-16.21026 1.86617,-5.61994 8.80008,-6.94914 13.81106,-9.90587 -1.86475,-7.12476 -13.16393,-6.25387 -22.31312,-7.20416 -3.39317,4.70574 0.62016,10.85857 2.12445,14.40832 -2.16419,4.11873 -0.7635,7.87418 -4.39224,8.89183 0.22706,-0.35486 0.43568,-0.54491 0.54779,-0.62912 -0.33208,0.18044 -1.70439,0.7458 -5.33029,0.98518 -3.13629,0.35726 -4.47596,-1.32319 -4.92583,0.82398 -0.193,1.96554 -3.03554,-2.02688 -3.76072,0.24539 2.83544,1.59745 -6.00296,5.20495 -3.61596,1.49761 -8.63121,5.44192 -19.68914,7.8826 -25.27061,0.79512 -0.21571,-2.88575 4.642,-1.46874 4.2489,-4.50245 -5.82415,-1.63594 -2.67508,4.33645 -8.49923,2.70171 1.42198,5.09788 2.8766,10.17051 5.31326,14.40952 20.63854,10.03819 47.13954,-25.1093 61.62186,-4.50365 4.13963,5.89059 2.19683,15.26959 -2.12445,20.71391 -1.47307,-1.4543 -3.01,-2.85207 -4.2489,-4.50365 -2.38558,3.08183 -4.84353,6.1011 -8.50065,8.10513 -3.83451,-0.95269 -2.18973,-6.54617 -6.37193,-7.20416 -4.29999,2.65841 -4.58666,8.77755 -11.68236,9.0049 v -7.20416 c -5.67655,-0.57499 -8.97179,7.25348 -17.00128,7.20416 0.16036,-2.8641 2.40686,-3.96235 2.12303,-7.20416 -4.68316,0.22975 -6.6586,2.76306 -12.75096,1.80074 z m 52.05969,-84.65399 c -0.74362,-2.77147 -0.74362,-1.72976 0,-4.50124 1.50713,0.0758 3.00716,0.14795 3.18739,-0.90097 3.95656,0.72655 0.20436,5.49604 -3.18739,5.40221 z M 316.424,440.68852 h -4.91022 -16.38396 c 7.71728,-6.01449 15.28129,-11.64887 21.69721,-18.509 -0.99623,4.06099 -2.39266,13.69741 -0.40303,18.509 z"
           inkscape:connector-curvature="0"
           style="fill:#be0a26;stroke-width:1.30655289" />
        <path
           inkscape:export-ydpi="96"
           inkscape:export-xdpi="96"
           id="path36"
           d="m 440.87682,281.54144 86.88679,-74.88525 c -5.50768,-6.61715 -11.52057,-12.89507 -18.01597,-18.81093 l -81.16482,69.72842 c 5.01807,7.36294 9.14635,15.37906 12.294,23.96776 z"
           inkscape:connector-curvature="0"
           style="fill:#be0a26;stroke-width:1.30655289" />
        <path
           inkscape:export-ydpi="96"
           inkscape:export-xdpi="96"
           id="path38"
           d="m 447.94839,328.38952 c -0.0284,0.7458 -0.0851,1.47596 -0.12346,2.21574 -0.28241,4.50847 -0.82027,8.90626 -1.55822,13.20783 l 63.05803,-54.45642 0.0937,0.0722 45.32447,-38.54327 c -3.44,-8.16047 -7.48029,-16.00457 -12.09249,-23.51066 l -95.32641,82.16158 c 0.47399,4.46516 0.72376,9.03137 0.72376,13.69741 0,1.70451 -0.0326,3.40661 -0.0951,5.09427 -0.003,0.0192 -0.003,0.0397 -0.004,0.0614 z"
           inkscape:connector-curvature="0"
           style="fill:#be0a26;stroke-width:1.30655289" />
      </g>
    </g>
  </g>
</svg>
