<?xml version="1.0" encoding="UTF-8" standalone="no"?>
<svg
   xmlns:dc="http://purl.org/dc/elements/1.1/"
   xmlns:cc="http://creativecommons.org/ns#"
   xmlns:rdf="http://www.w3.org/1999/02/22-rdf-syntax-ns#"
   xmlns:svg="http://www.w3.org/2000/svg"
   xmlns="http://www.w3.org/2000/svg"
   xmlns:sodipodi="http://sodipodi.sourceforge.net/DTD/sodipodi-0.dtd"
   xmlns:inkscape="http://www.inkscape.org/namespaces/inkscape"
   width="247px"
   height="247px"
   viewBox="0 0 247 247"
   version="1.1"
   id="svg44"
   sodipodi:docname="onboarding-tour-control.svg"
   inkscape:version="0.92.2 (5c3e80d, 2017-08-06)">
  <metadata
     id="metadata48">
    <rdf:RDF>
      <cc:Work
         rdf:about="">
        <dc:format>image/svg+xml</dc:format>
        <dc:type
           rdf:resource="http://purl.org/dc/dcmitype/StillImage" />
      </cc:Work>
    </rdf:RDF>
  </metadata>
  <sodipodi:namedview
     pagecolor="#ffffff"
     bordercolor="#666666"
     borderopacity="1"
     objecttolerance="10"
     gridtolerance="10"
     guidetolerance="10"
     inkscape:pageopacity="0"
     inkscape:pageshadow="2"
     inkscape:window-width="1280"
     inkscape:window-height="657"
     id="namedview46"
     showgrid="false"
     inkscape:zoom="5.4049296"
     inkscape:cx="184.14751"
     inkscape:cy="132.73509"
     inkscape:window-x="-8"
     inkscape:window-y="-8"
     inkscape:window-maximized="1"
     inkscape:current-layer="bg-3" />
  <!-- Generator: Sketch 39.1 (31720) - http://www.bohemiancoding.com/sketch -->
  <title
     id="title2">bg-3</title>
  <desc
     id="desc4">Created with Sketch.</desc>
  <defs
     id="defs11">
    <linearGradient
       x1="50%"
       y1="0%"
       x2="50%"
       y2="89.4673583%"
       id="linearGradient-1">
      <stop
         stop-color="#3950B5"
         offset="0%"
         id="stop6" />
      <stop
         stop-color="#162360"
         offset="100%"
         id="stop8" />
    </linearGradient>
  </defs>
  <g
     id="Onboarding"
     stroke="none"
     stroke-width="1"
     fill="none"
     fill-rule="evenodd">
    <g
       id="0.2.3---Tour-3"
       transform="translate(-64.000000, -210.000000)">
      <g
         id="bg-3"
         transform="translate(64.000000, 210.000000)">
        <path
           d="M123.5,247 C191.707167,247 247,191.707167 247,123.5 C247,55.2928334 191.707167,1.42108547e-14 123.5,1.42108547e-14 C55.2928334,1.42108547e-14 1.42108547e-14,55.2928334 1.42108547e-14,123.5 C1.42108547e-14,191.707167 55.2928334,247 123.5,247 Z"
           id="Oval-2"
           fill="url(#linearGradient-1)"
           opacity="0.300000012" />
        <rect
           id="Combined-Shape"
           stroke="#647CE8"
           stroke-width="2"
           fill="#253377"
           x="63"
           y="24"
           width="99.8310062"
           height="183.875349"
           rx="8" />
        <path
           d="M63.5199532,180.634556 L162.311053,180.634556"
           id="Line"
           stroke="#647CE8"
           stroke-width="2"
           stroke-linecap="square" />
        <path
           d="M104.076299,194.254952 L122.794613,194.254952"
           id="path16"
           stroke="#647CE8"
           stroke-width="2"
           stroke-linecap="square" />
        <g
           id="Group-4"
           transform="translate(90.000000, 76.000000)"
           stroke="#FFFFFF">
          <g
             id="top-up">
            <g
               id="shopping-48px-outline_ducatuscoin"
               transform="translate(8.666667, 3.180606)">
              <g
                 id="Group"
                 transform="translate(0.619048, 0.627502)">
                <path
                   d="M12.3809524,0 L12.3809524,7.5300202"
                   id="Shape" />
                <path
                   d="M17.3333333,0 L17.3333333,7.5300202"
                   id="path19" />
                <path
                   d="M12.3809524,47.6901279 L12.3809524,55.2201481"
                   id="path21" />
                <path
                   d="M17.3333333,47.6901279 L17.3333333,55.2201481"
                   id="path23" />
                <path
                   d="M0,47.6901279 L7.42857143,47.6901279"
                   id="Shape-Copy" />
                <path
                   d="M0,7.5300202 L7.42857143,7.5300202"
                   id="Shape-Copy-2" />
                <path
                   d="M7.42857143,25.1000673 L7.42857143,7.5300202 L21.8042328,7.5300202 C26.9010582,7.5300202 30.952381,11.4205306 30.952381,16.3150438 C30.952381,21.2095569 26.9010582,25.1000673 21.8042328,25.1000673"
                   id="path27" />
                <path
                   d="M7.42857143,47.6901279 L7.42857143,25.1000673 L23.6785714,25.1000673 C29.0952381,25.1000673 33.4285714,30.1200808 33.4285714,36.3950976 C33.4285714,42.6701145 29.0952381,47.6901279 23.6785714,47.6901279 L7.42857143,47.6901279 Z"
                   id="path29" />
              </g>
            </g>
          </g>
        </g>
        <g
           id="Group-3"
           transform="translate(125.000000, 122.000000)"
           stroke="#12E5B6"
           stroke-width="2"
           style="stroke:#ff2a00;stroke-opacity:1">
          <rect
             id="Rectangle-path"
             fill="#1F2F7B"
             x="0.00547760651"
             y="37.6483369"
             width="74.7600358"
             height="65.7214967"
             rx="4"
             style="stroke:#ff2a00;stroke-opacity:1" />
          <path
             d="M18.6954866,37.6483369 L18.6954866,18.8707664 C18.6954866,8.54310266 27.1059906,0.0931959432 37.3854955,0.0931959432 L37.3854955,0.0931959432 C47.6650004,0.0931959432 56.0755044,8.54310266 56.0755044,18.8707664 L56.0755044,37.6483369"
             id="path36"
             style="stroke:#ff2a00;stroke-opacity:1" />
          <path
             d="M36.6300769,65.8146926 L36.6300769,75.2034779"
             id="path38"
             fill="#F9F9F9"
             style="stroke:#ff2a00;stroke-opacity:1" />
        </g>
      </g>
    </g>
  </g>
</svg>
