<?xml version="1.0" encoding="UTF-8" standalone="no"?>
<!-- Generator: Adobe Illustrator 20.1.0, SVG Export Plug-In . SVG Version: 6.00 Build 0)  -->

<svg
   xmlns:dc="http://purl.org/dc/elements/1.1/"
   xmlns:cc="http://creativecommons.org/ns#"
   xmlns:rdf="http://www.w3.org/1999/02/22-rdf-syntax-ns#"
   xmlns:svg="http://www.w3.org/2000/svg"
   xmlns="http://www.w3.org/2000/svg"
   xmlns:sodipodi="http://sodipodi.sourceforge.net/DTD/sodipodi-0.dtd"
   xmlns:inkscape="http://www.inkscape.org/namespaces/inkscape"
   version="1.1"
   id="Layer_1"
   x="0px"
   y="0px"
   viewBox="0 0 375 247"
   style="enable-background:new 0 0 375 247;"
   xml:space="preserve"
   sodipodi:docname="onboarding-tour-phone.svg"
   inkscape:version="0.92.2 (5c3e80d, 2017-08-06)"><metadata
     id="metadata110"><rdf:RDF><cc:Work
         rdf:about=""><dc:format>image/svg+xml</dc:format><dc:type
           rdf:resource="http://purl.org/dc/dcmitype/StillImage" /></cc:Work></rdf:RDF></metadata><defs
     id="defs108" /><sodipodi:namedview
     pagecolor="#ffffff"
     bordercolor="#666666"
     borderopacity="1"
     objecttolerance="10"
     gridtolerance="10"
     guidetolerance="10"
     inkscape:pageopacity="0"
     inkscape:pageshadow="2"
     inkscape:window-width="1280"
     inkscape:window-height="657"
     id="namedview106"
     showgrid="false"
     inkscape:zoom="0.75733333"
     inkscape:cx="187.5"
     inkscape:cy="123.5"
     inkscape:window-x="-8"
     inkscape:window-y="-8"
     inkscape:window-maximized="1"
     inkscape:current-layer="Layer_1" /><style
     type="text/css"
     id="style2">
	.st0{opacity:0.15;}
	.st1{fill:none;stroke:#FFFFFF;stroke-width:2;}
	.st2{opacity:0.3;fill:url(#SVGID_1_);enable-background:new    ;}
	.st3{fill:#293881;fill-opacity:0.6548;stroke:#6778BA;stroke-width:2;}
	.st4{fill:none;stroke:#6778BA;stroke-width:2;stroke-linecap:square;}
	.st5{fill:#5BC2A7;}
</style><g
     transform="translate(0.000000, 54.000000)"
     class="st0"
     id="g56"><g
       id="g16"><polyline
         id="Shape"
         class="st1"
         points="13,123.7 0,123.7 0,90 13,90   " /><polyline
         id="Shape_1_"
         class="st1"
         points="58.3,123.7 71.3,123.7 71.3,90 58.3,90   " /><rect
         id="Rectangle-path"
         x="13"
         y="41.2"
         class="st1"
         width="45.4"
         height="82.5" /><path
         id="Shape_2_"
         class="st1"
         d="M25.9,56.2h3.2" /><path
         id="Shape_3_"
         class="st1"
         d="M42.1,56.2h3.2" /><path
         id="Shape_4_"
         class="st1"
         d="M25.9,71.2h3.2" /><path
         id="Shape_5_"
         class="st1"
         d="M42.1,71.2h3.2" /><path
         id="Shape_6_"
         class="st1"
         d="M25.9,86.2h3.2" /><path
         id="Shape_7_"
         class="st1"
         d="M42.1,86.2h3.2" /><path
         id="Shape_8_"
         class="st1"
         d="M25.9,101.2h3.2" /><path
         id="Shape_9_"
         class="st1"
         d="M42.1,101.2h3.2" /><path
         id="Shape_10_"
         class="st1"
         d="M35.7,123.7v-7.5" /></g><g
       id="g28"><polyline
         id="Shape_11_"
         class="st1"
         points="142.8,67 142.8,37.5 132.6,37.5 132.6,19.7 112.2,19.7 112.2,37.5 102,37.5     102,84.8   " /><path
         id="Shape_12_"
         class="st1"
         d="M112.2,138h20.4" /><path
         id="Shape_13_"
         class="st1"
         d="M122.4,7.9v11.8" /><rect
         id="Rectangle-path_1_"
         x="71.3"
         y="84.8"
         class="st1"
         width="40.9"
         height="53.2" /><rect
         id="Rectangle-path_2_"
         x="132.6"
         y="67"
         class="st1"
         width="40.9"
         height="71" /><path
         id="Shape_14_"
         class="st1"
         d="M147.9,84.8h10.2" /><path
         id="Shape_15_"
         class="st1"
         d="M147.9,102.5h10.2" /><path
         id="Shape_16_"
         class="st1"
         d="M147.9,120.2h10.2" /><path
         id="Shape_17_"
         class="st1"
         d="M86.6,102.5h10.2" /><path
         id="Shape_18_"
         class="st1"
         d="M86.6,120.2h10.2" /></g><g
       id="g42"><polyline
         id="Shape_19_"
         class="st1"
         points="237.5,135.4 224.5,135.4 224.5,101.6 237.5,101.6   " /><polyline
         id="Shape_20_"
         class="st1"
         points="282.9,135.4 295.8,135.4 295.8,101.6 282.9,101.6   " /><rect
         id="Rectangle-path_3_"
         x="237.5"
         y="52.9"
         class="st1"
         width="45.4"
         height="82.5" /><path
         id="Shape_21_"
         class="st1"
         d="M250.5,67.9h3.2" /><path
         id="Shape_22_"
         class="st1"
         d="M266.7,67.9h3.2" /><path
         id="Shape_23_"
         class="st1"
         d="M250.5,82.9h3.2" /><path
         id="Shape_24_"
         class="st1"
         d="M266.7,82.9h3.2" /><path
         id="Shape_25_"
         class="st1"
         d="M250.5,97.9h3.2" /><path
         id="Shape_26_"
         class="st1"
         d="M266.7,97.9h3.2" /><path
         id="Shape_27_"
         class="st1"
         d="M250.5,112.9h3.2" /><path
         id="Shape_28_"
         class="st1"
         d="M266.7,112.9h3.2" /><path
         id="Shape_29_"
         class="st1"
         d="M260.2,135.4v-7.5" /></g><g
       id="g54"><polyline
         id="Shape_30_"
         class="st1"
         points="367.4,56 367.4,26.4 357.1,26.4 357.1,8.7 336.7,8.7 336.7,26.4 326.5,26.4     326.5,73.8   " /><path
         id="Shape_31_"
         class="st1"
         d="M336.7,127.1h20.4" /><path
         id="Shape_32_"
         class="st1"
         d="M346.9-3.1V8.7" /><rect
         id="Rectangle-path_4_"
         x="295.8"
         y="73.8"
         class="st1"
         width="40.9"
         height="53.2" /><rect
         id="Rectangle-path_5_"
         x="357.1"
         y="56"
         class="st1"
         width="40.9"
         height="71" /><path
         id="Shape_33_"
         class="st1"
         d="M372.5,73.8h10.2" /><path
         id="Shape_34_"
         class="st1"
         d="M372.5,91.5h10.2" /><path
         id="Shape_35_"
         class="st1"
         d="M372.5,109.2h10.2" /><path
         id="Shape_36_"
         class="st1"
         d="M311.2,91.5h10.2" /><path
         id="Shape_37_"
         class="st1"
         d="M311.2,109.2h10.2" /></g></g><linearGradient
     id="SVGID_1_"
     gradientUnits="userSpaceOnUse"
     x1="-234.5445"
     y1="2.2024"
     x2="-234.5445"
     y2="2.9551"
     gradientTransform="matrix(247 0 0 247 58120 -544)"><stop
       offset="0"
       style="stop-color:#4054A5"
       id="stop58" /><stop
       offset="1"
       style="stop-color:#24285E"
       id="stop60" /></linearGradient><path
     class="st2"
     d="M187.5,247c68.2,0,123.5-55.3,123.5-123.5S255.7,0,187.5,0S64,55.3,64,123.5S119.3,247,187.5,247z"
     id="path63" /><g
     id="g71"><path
       class="st3"
       d="M141,32h83.8c4.4,0,8,3.6,8,8v167.9c0,4.4-3.6,8-8,8H141c-4.4,0-8-3.6-8-8V40C133,35.6,136.6,32,141,32z"
       id="path65" /><path
       class="st4"
       d="M133.5,188h98.8"
       id="path67" /><path
       class="st4"
       d="M177.1,202.3h18.7"
       id="path69" /></g><g
     id="g103"
     style="stroke:none;stroke-opacity:1;fill:#862633;fill-opacity:1"><path
       class="st5"
       d="M197.8,66H166v31.8h31.8V66L197.8,66z M193.3,93.3h-22.7V70.5h22.7V93.3L193.3,93.3z"
       id="path73"
       style="stroke:none;stroke-opacity:1;fill:#862633;fill-opacity:1" /><polygon
       class="st5"
       points="231.9,156.9 227.4,156.9 227.4,166 266,166 266,161.5 231.9,161.5  "
       id="polygon75"
       style="stroke:none;stroke-opacity:1;fill:#862633;fill-opacity:1" /><rect
       x="175.1"
       y="75.1"
       class="st5"
       width="13.6"
       height="13.6"
       id="rect77"
       style="stroke:none;stroke-opacity:1;fill:#862633;fill-opacity:1" /><path
       class="st5"
       d="M166,166h31.8v-31.8H166V166L166,166z M170.5,138.7h22.7v22.7h-22.7V138.7L170.5,138.7z"
       id="path79"
       style="stroke:none;stroke-opacity:1;fill:#862633;fill-opacity:1" /><rect
       x="175.1"
       y="143.3"
       class="st5"
       width="13.6"
       height="13.6"
       id="rect81"
       style="stroke:none;stroke-opacity:1;fill:#862633;fill-opacity:1" /><path
       class="st5"
       d="M234.2,66v31.8H266V66H234.2L234.2,66z M261.5,93.3h-22.7V70.5h22.7V93.3L261.5,93.3z"
       id="path83"
       style="stroke:none;stroke-opacity:1;fill:#862633;fill-opacity:1" /><rect
       x="243.3"
       y="75.1"
       class="st5"
       width="13.6"
       height="13.6"
       id="rect85"
       style="stroke:none;stroke-opacity:1;fill:#862633;fill-opacity:1" /><rect
       x="256.9"
       y="102.4"
       class="st5"
       width="9.1"
       height="9.1"
       id="rect87"
       style="stroke:none;stroke-opacity:1;fill:#862633;fill-opacity:1" /><rect
       x="166"
       y="120.5"
       class="st5"
       width="9.1"
       height="9.1"
       id="rect89"
       style="stroke:none;stroke-opacity:1;fill:#862633;fill-opacity:1" /><polygon
       class="st5"
       points="213.7,102.4 195.5,102.4 195.5,106.9 218.3,106.9 218.3,97.8 218.3,93.3 222.8,93.3 222.8,84.2    218.3,84.2 213.7,84.2 209.2,84.2 209.2,75.1 213.7,75.1 213.7,79.6 229.6,79.6 229.6,66 225.1,66 225.1,75.1 218.3,75.1 218.3,66    216,66 206.9,66 204.6,66 204.6,88.7 213.7,88.7 213.7,93.3 204.6,93.3 204.6,97.8 213.7,97.8  "
       id="polygon91"
       style="stroke:none;stroke-opacity:1;fill:#862633;fill-opacity:1" /><polygon
       class="st5"
       points="172.8,116 181.9,116 186.5,116 188.7,116 188.7,120.5 179.6,120.5 179.6,125.1 188.7,125.1    188.7,129.6 206.9,129.6 206.9,125.1 193.3,125.1 193.3,120.5 193.3,111.5 186.5,111.5 186.5,104.6 181.9,104.6 181.9,111.5    177.4,111.5 177.4,102.4 166,102.4 166,106.9 172.8,106.9  "
       id="polygon93"
       style="stroke:none;stroke-opacity:1;fill:#862633;fill-opacity:1" /><polygon
       class="st5"
       points="216,156.9 216,145.5 206.9,145.5 206.9,136.5 202.4,136.5 202.4,150.1 211.5,150.1 211.5,156.9    202.4,156.9 202.4,161.5 211.5,161.5 211.5,166 222.8,166 222.8,161.5 216,161.5  "
       id="polygon95"
       style="stroke:none;stroke-opacity:1;fill:#862633;fill-opacity:1" /><polygon
       class="st5"
       points="238.7,111.5 229.6,111.5 229.6,100.1 225.1,100.1 225.1,116 247.8,116 247.8,111.5 243.3,111.5    243.3,106.9 250.1,106.9 250.1,102.4 243.3,102.4 238.7,102.4 234.2,102.4 234.2,106.9 238.7,106.9  "
       id="polygon97"
       style="stroke:none;stroke-opacity:1;fill:#862633;fill-opacity:1" /><polygon
       class="st5"
       points="234.2,152.4 241,152.4 241,156.9 250.1,156.9 250.1,152.4 250.1,147.8 250.1,141 241,141 241,147.8    234.2,147.8 234.2,141 229.6,141 229.6,147.8 225.1,147.8 225.1,129.6 220.5,129.6 220.5,125.1 216,125.1 216,111.5 200.1,111.5    200.1,120.5 204.6,120.5 204.6,116 211.5,116 211.5,125.1 211.5,134.2 220.5,134.2 220.5,147.8 220.5,152.4 225.1,152.4    229.6,152.4  "
       id="polygon99"
       style="stroke:none;stroke-opacity:1;fill:#862633;fill-opacity:1" /><polygon
       class="st5"
       points="261.5,122.8 254.6,122.8 250.1,122.8 238.7,122.8 238.7,131.9 234.2,131.9 234.2,122.8 229.6,122.8    229.6,136.5 243.3,136.5 243.3,127.4 250.1,127.4 250.1,134.2 254.6,134.2 254.6,127.4 261.5,127.4 261.5,141 254.6,141    254.6,154.6 266,154.6 266,150.1 259.2,150.1 259.2,145.5 266,145.5 266,127.4 266,122.8 266,116 261.5,116  "
       id="polygon101"
       style="stroke:none;stroke-opacity:1;fill:#862633;fill-opacity:1" /></g></svg>