<?xml version="1.0" encoding="UTF-8" standalone="no"?>
<svg
   xmlns:dc="http://purl.org/dc/elements/1.1/"
   xmlns:cc="http://creativecommons.org/ns#"
   xmlns:rdf="http://www.w3.org/1999/02/22-rdf-syntax-ns#"
   xmlns:svg="http://www.w3.org/2000/svg"
   xmlns="http://www.w3.org/2000/svg"
   xmlns:xlink="http://www.w3.org/1999/xlink"
   xmlns:sodipodi="http://sodipodi.sourceforge.net/DTD/sodipodi-0.dtd"
   xmlns:inkscape="http://www.inkscape.org/namespaces/inkscape"
   width="247px"
   height="248px"
   viewBox="0 0 247 248"
   version="1.1"
   id="svg36"
   sodipodi:docname="onboarding-push-notifications.svg"
   inkscape:version="0.92.2 (5c3e80d, 2017-08-06)">
  <metadata
     id="metadata40">
    <rdf:RDF>
      <cc:Work
         rdf:about="">
        <dc:format>image/svg+xml</dc:format>
        <dc:type
           rdf:resource="http://purl.org/dc/dcmitype/StillImage" />
      </cc:Work>
    </rdf:RDF>
  </metadata>
  <sodipodi:namedview
     pagecolor="#ffffff"
     bordercolor="#666666"
     borderopacity="1"
     objecttolerance="10"
     gridtolerance="10"
     guidetolerance="10"
     inkscape:pageopacity="0"
     inkscape:pageshadow="2"
     inkscape:window-width="1280"
     inkscape:window-height="657"
     id="namedview38"
     showgrid="false"
     inkscape:zoom="5.3831355"
     inkscape:cx="108.78149"
     inkscape:cy="176.73672"
     inkscape:window-x="-8"
     inkscape:window-y="-8"
     inkscape:window-maximized="1"
     inkscape:current-layer="Group-7" />
  <!-- Generator: Sketch 39.1 (31720) - http://www.bohemiancoding.com/sketch -->
  <title
     id="title2">Group 7</title>
  <desc
     id="desc4">Created with Sketch.</desc>
  <defs
     id="defs15">
    <linearGradient
       x1="123.5"
       y1="1.4210855e-014"
       x2="123.5"
       y2="220.98438"
       id="linearGradient-1"
       gradientUnits="userSpaceOnUse">
      <stop
         stop-color="#3950B5"
         offset="0%"
         id="stop6" />
      <stop
         stop-color="#162360"
         offset="100%"
         id="stop8" />
    </linearGradient>
    <rect
       id="path-2"
       x="0"
       y="0"
       width="122"
       height="34" />
    <mask
       id="mask-3"
       maskContentUnits="userSpaceOnUse"
       maskUnits="objectBoundingBox"
       x="0"
       y="0"
       width="122"
       height="34"
       fill="white">
      <use
         xlink:href="#path-2"
         id="use12" />
    </mask>
  </defs>
  <g
     id="Onboarding"
     stroke="none"
     stroke-width="1"
     fill="none"
     fill-rule="evenodd">
    <g
       id="0.4---Allow-Push-Notifications"
       transform="translate(-64.000000, -209.000000)">
      <g
         id="Group-7"
         transform="translate(64.557296,210.37153)">
        <path
           d="M 123.5,247 C 191.70717,247 247,191.70717 247,123.5 247,55.292833 191.70717,0 123.5,0 55.292833,0 0,55.292833 0,123.5 0,191.70717 55.292833,247 123.5,247 Z"
           id="Oval-2"
           style="opacity:0.3;fill:url(#linearGradient-1)"
           inkscape:connector-curvature="0" />
        <g
           id="Phone"
           transform="translate(62)"
           style="stroke:#647ce8;stroke-width:2">
          <rect
             id="Combined-Shape"
             x="0"
             y="0"
             width="122.16932"
             height="220.46484"
             rx="8"
             style="fill:#253377" />
          <path
             d="M 0.63629854,187 H 121.53302"
             id="Line"
             inkscape:connector-curvature="0"
             style="stroke-linecap:square" />
          <path
             d="M 50.267585,203 H 73.174332"
             id="path20"
             inkscape:connector-curvature="0"
             style="stroke-linecap:square" />
        </g>
        <ellipse
           id="ellipse23"
           cx="169"
           cy="57.488438"
           rx="47"
           ry="44.488438"
           style="opacity:0.9456157;fill:#5462b1;fill-opacity:0.41907271;stroke:#647ce8;stroke-width:2" />
        <g
           id="Group-3"
           transform="translate(62,33)"
           style="fill:#ff2000;fill-opacity:0">
          <path
             d="M 12.710549,19.5 H 50.49117"
             id="path25"
             inkscape:connector-curvature="0"
             style="stroke:#ff2a00;stroke-width:3;stroke-linecap:square;fill:#ff2a00;fill-opacity:1;stroke-opacity:1" />
          <path
             d="M 21.96,10.416667 H 43.002641"
             id="path27"
             inkscape:connector-curvature="0"
             style="stroke:#ff2a00;stroke-width:3;stroke-linecap:square;fill:#ff2000;fill-opacity:0;stroke-opacity:1" />
          <use
             id="Rectangle-3"
             mask="url(#mask-3)"
             xlink:href="#path-2"
             style="stroke:#677ae7;stroke-width:2;fill:#ff2000;fill-opacity:0"
             x="0"
             y="0"
             width="100%"
             height="100%" />
        </g>
        <g
           id="android-notifications-none"
           transform="translate(144.64241,28)"
           style="opacity:0.90000006;fill:#ffffff">
          <path
             d="m 24.521884,9.5815024 c 0.981291,0 3.312671,0.5921756 3.312671,0.5921756 6.315978,1.381214 10.761643,6.933041 10.761643,13.201322 V 38.5 40.246779 l 1.291347,1.238029 1.078963,1.034291 H 7.8001757 L 8.8791386,41.484808 10.170486,40.246779 V 38.5 23.375 c 0,-6.268149 4.445665,-11.820108 10.761643,-13.201322 0,0 2.499708,-0.5921756 3.312671,-0.5921756 z M 24.383342,0 C 21.944731,0 20.080375,1.7872356 20.080375,4.125 V 6.0498678 C 11.904336,7.8377644 5.737151,14.9875 5.737151,23.375 V 38.5 L 0,44 v 2.75 H 48.766684 V 44 L 43.029533,38.5 V 23.375 c 0,-8.3875 -6.167323,-15.5372356 -14.343224,-17.3251322 V 4.125 C 28.686309,1.7872356 26.821953,0 24.383342,0 v 0 z m 5.737151,49.5 H 18.646052 c 0,3.025132 2.581448,5.5 5.73729,5.5 3.155842,0 5.737151,-2.474868 5.737151,-5.5 v 0 z"
             id="Shape"
             inkscape:connector-curvature="0" />
        </g>
      </g>
    </g>
  </g>
</svg>
