<?xml version="1.0" encoding="UTF-8" standalone="no"?>
<svg
   xmlns:dc="http://purl.org/dc/elements/1.1/"
   xmlns:cc="http://creativecommons.org/ns#"
   xmlns:rdf="http://www.w3.org/1999/02/22-rdf-syntax-ns#"
   xmlns:svg="http://www.w3.org/2000/svg"
   xmlns="http://www.w3.org/2000/svg"
   xmlns:sodipodi="http://sodipodi.sourceforge.net/DTD/sodipodi-0.dtd"
   xmlns:inkscape="http://www.inkscape.org/namespaces/inkscape"
   width="247px"
   height="247px"
   viewBox="0 0 247 247"
   version="1.1"
   id="svg46"
   sodipodi:docname="tour-control.svg"
   inkscape:version="0.92.2 (5c3e80d, 2017-08-06)">
  <metadata
     id="metadata50">
    <rdf:RDF>
      <cc:Work
         rdf:about="">
        <dc:format>image/svg+xml</dc:format>
        <dc:type
           rdf:resource="http://purl.org/dc/dcmitype/StillImage" />
      </cc:Work>
    </rdf:RDF>
  </metadata>
  <sodipodi:namedview
     pagecolor="#ffffff"
     bordercolor="#666666"
     borderopacity="1"
     objecttolerance="10"
     gridtolerance="10"
     guidetolerance="10"
     inkscape:pageopacity="0"
     inkscape:pageshadow="2"
     inkscape:window-width="1920"
     inkscape:window-height="1017"
     id="namedview48"
     showgrid="false"
     inkscape:zoom="5.4049296"
     inkscape:cx="136.09168"
     inkscape:cy="139.11536"
     inkscape:window-x="-8"
     inkscape:window-y="-8"
     inkscape:window-maximized="1"
     inkscape:current-layer="bg-3" />
  <!-- Generator: Sketch 42 (36781) - http://www.bohemiancoding.com/sketch -->
  <title
     id="title2">tour-control</title>
  <desc
     id="desc4">Created with Sketch.</desc>
  <defs
     id="defs11">
    <linearGradient
       x1="50%"
       y1="0%"
       x2="50%"
       y2="89.4673583%"
       id="linearGradient-1">
      <stop
         stop-color="#192C3A"
         offset="0%"
         id="stop6" />
      <stop
         stop-color="#192C3A"
         offset="100%"
         id="stop8" />
    </linearGradient>
  </defs>
  <g
     id="Page-1"
     stroke="none"
     stroke-width="1"
     fill="none"
     fill-rule="evenodd">
    <g
       id="tour-control">
      <g
         id="Onboarding">
        <g
           id="0.2.3---Tour-3">
          <g
             id="bg-3">
            <path
               d="M123.5,247 C191.707167,247 247,191.707167 247,123.5 C247,55.2928334 191.707167,1.42108547e-14 123.5,1.42108547e-14 C55.2928334,1.42108547e-14 1.42108547e-14,55.2928334 1.42108547e-14,123.5 C1.42108547e-14,191.707167 55.2928334,247 123.5,247 Z"
               id="Oval-2"
               fill="url(#linearGradient-1)"
               fill-rule="nonzero"
               opacity="0.300000012" />
            <rect
               id="Combined-Shape"
               x="63"
               y="24"
               width="99.8310062"
               height="183.875349"
               rx="8"
               stroke-width="2"
               stroke="#707D89"
               fill-rule="nonzero"
               fill-opacity="0.65"
               fill="#192C3A" />
            <path
               d="M63.5199532,180.634556 L162.311053,180.634556"
               id="Line"
               stroke="#707D89"
               stroke-width="2"
               stroke-linecap="square" />
            <path
               d="M104.076299,194.254952 L122.794613,194.254952"
               id="path16"
               stroke="#707D89"
               stroke-width="2"
               stroke-linecap="square" />
            <g
               id="Group-3"
               transform="translate(125.000000, 122.000000)"
               stroke="#12E5B6"
               stroke-width="2">
              <rect
                 id="Rectangle-path"
                 fill="#192C3A"
                 fill-rule="nonzero"
                 x="0.00547760651"
                 y="37.6483369"
                 width="74.7600358"
                 height="65.7214967"
                 rx="4"
                 style="stroke:#862633;stroke-opacity:1" />
              <path
                 d="M 18.695487,37.648337 V 26.941368 18.870766 c 0,-10.3276633 8.410504,-18.77757006 18.690008,-18.77757006 v 0 c 10.279505,0 18.690009,8.44990676 18.690009,18.77757006 v 14.731188 4.046383"
                 id="path36"
                 inkscape:connector-curvature="0"
                 sodipodi:nodetypes="ccsccscc"
                 style="stroke:#862633;stroke-opacity:1" />
              <path
                 d="M36.6300769,65.8146926 L36.6300769,75.2034779"
                 id="path38"
                 fill="#F9F9F9"
                 fill-rule="nonzero"
                 style="stroke:#862633;stroke-opacity:1" />
            </g>
            <g
               transform="matrix(0.21081179,0,0,0.2506677,57.549542,32.136228)"
               id="g16"
               inkscape:export-xdpi="96"
               inkscape:export-ydpi="96"
               style="fill:#862633;fill-opacity:1;stroke:#862633;stroke-opacity:1">
              <path
                 style="fill:#862633;fill-opacity:1;stroke:#862633;stroke-opacity:1"
                 inkscape:connector-curvature="0"
                 d="m 267.657,251.925 c 3.575,-14.808 -9.886,-19.06 -11.978,-30.694 -0.958,-0.042 -1.037,-0.96 -2.246,-0.749 0.053,8.624 8.588,13.206 10.481,20.963 0.783,3.203 -2.664,10.188 3.743,10.48 z"
                 id="path2" />
              <path
                 style="fill:#862633;fill-opacity:1;stroke:#862633;stroke-opacity:1"
                 inkscape:connector-curvature="0"
                 d="m 214.503,239.198 c -2.099,-9.757 10.962,-10.374 19.465,-11.978 -8.786,-7.637 -38.526,5.088 -19.465,11.978 z"
                 id="path4" />
              <path
                 style="fill:#862633;fill-opacity:1;stroke:#862633;stroke-opacity:1"
                 inkscape:connector-curvature="0"
                 d="m 251.188,249.68 c 1.892,0.995 5.947,2.489 8.235,0.748 2.337,-11.371 -5.629,-18.791 -11.23,-24.706 2.403,7.317 14.344,18.376 2.995,23.958 z"
                 id="path6" />
              <path
                 style="fill:#862633;fill-opacity:1;stroke:#862633;stroke-opacity:1"
                 inkscape:connector-curvature="0"
                 d="m 245.198,259.411 c 0.273,2.222 1.298,3.694 2.994,4.492 4.632,-13.417 -6.428,-17.491 -19.465,-15.722 4.086,5.148 7.255,11.214 16.471,11.23 z m 0,-4.491 c -4.162,0.418 -7.14,-0.347 -7.486,-3.744 3.757,-0.014 7.924,-0.439 7.486,3.744 z"
                 id="path8" />
              <path
                 style="fill:#862633;fill-opacity:1;stroke:#862633;stroke-opacity:1"
                 inkscape:connector-curvature="0"
                 d="m 251.936,254.171 c 0.392,6.433 -1.239,12.064 0.749,14.225 -0.512,1.484 -4.459,-0.467 -3.743,2.246 -0.032,1.03 0.354,1.644 0.748,2.247 4.958,-3.097 10.144,-15.581 2.246,-18.718 z"
                 id="path10" />
              <path
                 style="fill:#862633;fill-opacity:1;stroke:#862633;stroke-opacity:1"
                 inkscape:connector-curvature="0"
                 d="m 221.989,256.417 c -4.063,11.36 10.735,14.174 17.968,14.225 -6.531,-4.2 -14.908,-6.554 -17.968,-14.225 z"
                 id="path12" />
              <path
                 style="fill:#862633;fill-opacity:1;stroke:#862633;stroke-opacity:1"
                 inkscape:connector-curvature="0"
                 d="m 249.689,291.604 c -3.569,-1.747 -10.551,2.047 -12.727,-2.246 -0.162,-2.906 4.518,-0.971 4.492,-3.743 -4.211,-3.616 -9.282,8.473 -16.471,2.246 -0.168,1.416 0.844,1.651 0.748,2.995 2.363,0.367 2.645,-1.348 5.241,-0.749 1.507,1.988 0.028,6.96 2.246,8.235 1.601,-4.705 14.07,-0.844 16.471,-6.738 z"
                 id="path14" />
            </g>
            <path
               style="fill:#862633;stroke-width:0.22987758;fill-opacity:1;stroke:#862633;stroke-opacity:1"
               inkscape:connector-curvature="0"
               d="m 149.51281,104.3541 c -0.001,-0.22435 -0.004,-0.4467 -0.006,-0.66453 -6.2e-4,-0.0469 -4.4e-4,-0.094 -0.001,-0.14087 l -0.001,6.2e-4 c -0.0198,-1.15232 -0.067,-2.18658 -0.12754,-2.91326 l -0.001,-0.001 c -0.0177,-0.2439 -0.0354,-0.4873 -0.0561,-0.729694 l 0.001,-0.0012 c -0.0255,-0.305056 -0.0529,-0.609117 -0.0833,-0.911426 -0.121,-1.190419 -0.26626,-2.36906 -0.46357,-3.514608 -0.0207,-0.121577 -0.0432,-0.241647 -0.0647,-0.362718 l -21.48341,25.897976 -0.0126,-0.0153 -0.69589,0.84324 c -3.42506,4.62532 -8.36522,7.33855 -14.1305,7.38266 0.94992,-2.75584 3.1392,-4.00491 4.74495,-5.94809 1.60048,-1.93641 1.68987,-4.49196 2.52532,-7.52078 0.15853,1.12499 -0.34784,3.03383 0.31558,3.55848 1.98964,-2.19084 2.96275,-6.78357 1.73604,-10.7005 0.41276,-0.21959 0.67902,0.57703 0.63117,-0.18951 0.2418,-3.60335 -1.02518,-6.41283 -2.05162,-7.88274 0.75618,0.28951 1.05152,1.12624 1.89393,1.31299 -0.22072,-3.733945 -2.55146,-6.010763 -3.62997,-9.195741 -0.15199,-0.448447 0.006,-0.943519 -0.1579,-1.501505 -0.56097,-1.90457 -2.50886,-2.982191 -2.84089,-4.504246 -0.351,-1.609792 0.4311,-3.067673 -0.3158,-4.503999 -0.86032,-0.464984 -1.86421,0.01056 -2.52532,0.355199 -0.47538,-0.834727 -0.97184,-1.656663 -1.52332,-2.408666 h 1.05533 c 5.65502,0 10.52603,2.559817 13.96395,6.974079 L 137.74111,73.17027 c -6.37728,-6.280732 -15.01804,-9.870293 -25.09968,-9.870293 H 82.833062 v 82.720343 h 29.114578 c 0.24939,0 0.49689,-0.004 0.74437,-0.008 l 7.2e-4,0.008 c 18.98128,0 32.82993,-12.72439 36.10742,-32.17746 0.19605,-1.14104 0.31348,-2.33196 0.43428,-3.51712 0.0304,-0.3023 0.0613,-0.60386 0.0868,-0.90892 l -0.001,-0.001 c 0.0409,-0.48429 0.047,-0.56601 0.0717,-0.93524 0.0835,-1.12099 0.11931,-2.37483 0.1229,-3.58079 1.8e-4,-0.0519 0.001,-0.10327 0.001,-0.15516 l -7.2e-4,-4e-4 c 0,-0.0562 -4.5e-4,-0.1113 -4.5e-4,-0.1672 l 0.001,-6.2e-4 c 0,-0.0744 -0.002,-0.14839 -0.002,-0.22259 z m -35.38012,19.64432 c 0.48296,-2.42847 1.11393,-4.68047 1.57814,-7.13125 1.02011,-0.53843 1.47104,-1.75417 1.89393,-3.00274 0.60144,4.59398 -1.54799,8.5425 -3.47207,10.13399 z m 6.62876,-9.008 c -0.51374,-2.22216 -1.87812,-4.94617 -0.94697,-7.69424 0.99989,1.7825 1.94664,5.2194 0.94697,7.69424 z m 0.94697,-8.25724 c -0.96678,-0.29102 -1.77883,-2.38736 -1.89394,-4.31624 1.12679,0.84951 1.33487,2.79143 1.89394,4.31624 z m -2.683,-9.945988 c 1.62051,0.199781 2.10727,1.747652 2.3672,3.565498 -0.91134,-1.042781 -2.56115,-1.208475 -2.3672,-3.565498 z M 104.49838,80.095477 c 0.12648,0.501331 0.52007,1.039768 0.48044,1.637613 -0.5304,-0.557739 -1.05722,-1.136282 -1.62072,-1.637613 z m 0.008,42.993013 c -0.32191,2.49641 -0.65984,4.63385 -1.42699,6.13785 h -1.53134 c 0.73531,-4.26134 -0.98913,-10.44256 2.05584,-12.33034 -1.44196,0.46674 -2.43172,1.78751 -3.06415,3.47952 v -9.75273 c 0.84324,-0.53793 1.92513,-1.08664 2.90646,-1.44986 -0.56308,2.02013 -1.92092,3.12282 -2.70619,4.87925 1.50583,0.0215 2.68426,-1.91084 4.72324,-1.87675 -0.18742,1.18541 -1.19889,2.2916 -0.95287,3.37799 0.87107,-0.21557 0.80445,-1.54185 1.73329,-1.68874 -0.60081,3.08797 -1.2851,5.71923 -1.7373,9.22381 z m 3.31312,-8.84856 c -0.11785,-0.57779 0.43321,-0.36071 0.31537,-0.9385 -1.49824,-1.28342 -1.69725,-7.10418 -2.05626,-6.38075 l -3.30974,-0.18775 c -0.22937,-0.28977 -0.80804,-0.16493 -1.26255,-0.1875 0.0101,-1.11396 0.4214,-1.75066 0.31579,-3.00275 -0.48381,0.17572 -0.40982,0.95956 -0.9008,1.126 -0.15536,0.0591 -0.38136,0.087 -0.38136,0.0968 v -6.599078 c 0.2241,1.256846 0.87192,2.374828 1.28216,3.235868 h 0.94676 c 0.24517,-0.752 -0.13218,0.21357 0.11278,-0.57829 -0.11278,-0.50961 0,0.0381 -0.11278,-0.4715 -0.99061,-1.011197 -1.08232,-3.130091 -2.20931,-3.979102 -0.008,0.03759 -0.0124,0.07495 -0.0196,0.112545 v -2.934812 c 0.42162,-0.06117 0.95161,-0.263203 1.37449,-0.704879 -0.42752,-0.278993 -0.95287,-0.495572 -1.37449,-0.674798 v -3.568757 c 0,-0.092 0.34236,-0.230616 0.42732,-0.448194 -0.13661,-0.103274 -0.42732,-0.188251 -0.42732,-0.257938 v -1.08188 c 0,0.0085 0.39106,0.01729 0.58501,0.02605 -0.16571,-0.235128 -0.3742,-0.423632 -0.58501,-0.577036 v -1.9517 c 0.21081,0.129595 0.5869,0.284006 0.85485,0.464485 0.18066,0.590326 -0.2709,0.456219 -0.33878,0.750749 0.86791,0.969835 2.36341,1.179648 3.77648,1.501 -0.66764,-1.583217 -2.48041,-1.811574 -3.16259,-3.377747 2.98383,-0.562746 4.03851,2.014114 6.62602,1.313748 -0.45851,-1.456875 -1.66099,-2.030152 -2.0531,-3.565745 1.85409,0.673045 2.42877,2.845583 4.10261,3.732946 -0.45788,-2.465068 -2.92143,-3.782576 -5.06939,-5.035917 h 2.14923 c 0.21776,0.250666 0.40412,0.575784 0.55211,0.887111 0.18025,-0.190004 0.13598,-0.385779 0.0489,-0.887111 h 0.71697 c 1.5248,1.754678 2.78166,3.827948 3.96853,5.974412 0.64508,-0.546956 0.2943,-2.267287 0.78928,-2.992468 0.37166,0.0043 0.46463,-0.318099 0.94676,-0.182739 0.45429,1.10043 -0.16781,2.386857 -0.1579,3.568005 0.70305,3.128835 3.91436,3.984364 3.15691,8.258747 0.0698,0.667532 0.5713,0.822443 0.78885,1.314255 -0.25023,1.016206 -0.5051,2.026899 -0.63117,3.190497 -0.48065,-0.304062 -0.68071,-0.942007 -1.26255,-1.125998 0.24433,-1.022978 0.73953,-1.747659 0.94697,-2.814748 -0.15369,-0.538937 -1.76281,-0.115311 -2.36721,0 0.0713,2.754839 2.36447,4.42654 2.68301,7.506749 0.37186,0.004 0.46463,-0.32336 0.94696,-0.18776 0.19648,0.64297 1.11287,1.92514 0.15768,2.25175 0.0514,0.43967 0.68852,0.18249 0.78928,0.563 0.0268,1.03301 -0.14714,1.82687 -0.94696,1.87675 0.50637,0.80089 0.16043,1.83088 -0.47349,2.252 -1.05595,-0.93399 -1.93271,-2.08079 -2.683,-3.378 0.27723,-1.17112 1.30725,-1.44811 2.05163,-2.06425 -0.27701,-1.4847 -1.95549,-1.30322 -3.3146,-1.50125 -0.50405,0.98062 0.0921,2.26279 0.31559,3.0025 -0.32149,0.85829 -0.11342,1.64088 -0.65246,1.85294 0.0337,-0.0739 0.0647,-0.11356 0.0814,-0.1311 -0.0493,0.0376 -0.25319,0.15541 -0.79181,0.2053 -0.46589,0.0745 -0.6649,-0.27574 -0.73173,0.1717 -0.0287,0.4096 -0.45093,-0.42237 -0.55865,0.0511 0.4212,0.33289 -0.89174,1.08464 -0.53715,0.31208 -1.28215,1.13403 -2.9248,1.64263 -3.75393,0.1657 -0.032,-0.60135 0.68957,-0.30607 0.63118,-0.93826 -0.86518,-0.3409 -0.39738,0.90366 -1.26255,0.563 0.21123,1.06233 0.42731,2.1194 0.78928,3.00275 3.06583,2.09182 7.00253,-5.23243 9.15386,-0.9385 0.61494,1.22752 0.32634,3.18198 -0.31558,4.3165 -0.21883,-0.30306 -0.44713,-0.59433 -0.63117,-0.9385 -0.35438,0.64222 -0.7195,1.27139 -1.26276,1.689 -0.56962,-0.19853 -0.32529,-1.36413 -0.94655,-1.50125 -0.63876,0.55398 -0.68134,1.82912 -1.7354,1.8765 v -1.50125 c -0.84325,-0.11982 -1.33276,1.51153 -2.52552,1.50125 0.0238,-0.59684 0.35753,-0.8257 0.31537,-1.50125 -0.69568,0.0479 -0.98913,0.57579 -1.89414,0.37525 z m 7.73341,-17.640742 c -0.11046,-0.577537 -0.11046,-0.360458 0,-0.938001 0.22388,0.0158 0.44671,0.0308 0.47349,-0.18775 0.58774,0.151404 0.0304,1.145301 -0.47349,1.125751 z m -3.53215,32.627152 h -0.72941 -2.43383 c 1.1464,-1.25333 2.27003,-2.42746 3.22311,-3.85702 -0.14799,0.84626 -0.35543,2.85435 -0.0599,3.85702 z"
               id="path34"
               inkscape:export-xdpi="96"
               inkscape:export-ydpi="96" />
            <path
               style="fill:#862633;stroke-width:0.22987758;fill-opacity:1;stroke:#862633;stroke-opacity:1"
               inkscape:connector-curvature="0"
               d="M 130.50854,96.062257 143.4155,80.457188 c -0.81816,-1.378923 -1.71137,-2.687153 -2.67626,-3.919937 l -12.05695,14.530454 c 0.74542,1.534334 1.35867,3.204788 1.82625,4.994552 z"
               id="path36-9"
               inkscape:export-xdpi="96"
               inkscape:export-ydpi="96" />
            <path
               style="fill:#862633;stroke-width:0.22987758;fill-opacity:1;stroke:#862633;stroke-opacity:1"
               inkscape:connector-curvature="0"
               d="m 131.55902,105.82476 c -0.004,0.15541 -0.0126,0.30757 -0.0183,0.46173 -0.0419,0.93951 -0.12185,1.85594 -0.23147,2.75233 l 9.36721,-11.347974 0.0139,0.01506 6.73291,-8.031891 c -0.51101,-1.700529 -1.11119,-3.335136 -1.79633,-4.899303 l -14.16065,17.121358 c 0.0704,0.93048 0.10752,1.88201 0.10752,2.85436 0,0.35519 -0.005,0.70989 -0.0142,1.06157 -4.5e-4,0.004 -4.5e-4,0.008 -6.3e-4,0.0128 z"
               id="path38-3"
               inkscape:export-xdpi="96"
               inkscape:export-ydpi="96" />
          </g>
        </g>
      </g>
    </g>
  </g>
</svg>
