<?xml version="1.0" encoding="UTF-8" standalone="no"?>
<!-- Generator: Adobe Illustrator 15.0.2, SVG Export Plug-In . SVG Version: 6.00 Build 0)  -->

<svg
   xmlns:dc="http://purl.org/dc/elements/1.1/"
   xmlns:cc="http://creativecommons.org/ns#"
   xmlns:rdf="http://www.w3.org/1999/02/22-rdf-syntax-ns#"
   xmlns:svg="http://www.w3.org/2000/svg"
   xmlns="http://www.w3.org/2000/svg"
   xmlns:sodipodi="http://sodipodi.sourceforge.net/DTD/sodipodi-0.dtd"
   xmlns:inkscape="http://www.inkscape.org/namespaces/inkscape"
   version="1.1"
   x="0px"
   y="0px"
   width="1217.76"
   height="330"
   viewBox="0 0 1217.76 330.00001"
   enable-background="new 0 0 1457.484 578.584"
   xml:space="preserve"
   id="svg55"
   sodipodi:docname="logo.svg"
   inkscape:version="0.92.2 (5c3e80d, 2017-08-06)"><metadata
     id="metadata61"><rdf:RDF><cc:Work
         rdf:about=""><dc:format>image/svg+xml</dc:format><dc:type
           rdf:resource="http://purl.org/dc/dcmitype/StillImage" /></cc:Work></rdf:RDF></metadata><defs
     id="defs59" /><sodipodi:namedview
     pagecolor="#ffffff"
     bordercolor="#666666"
     borderopacity="1"
     objecttolerance="10"
     gridtolerance="10"
     guidetolerance="10"
     inkscape:pageopacity="0"
     inkscape:pageshadow="2"
     inkscape:window-width="1019"
     inkscape:window-height="590"
     id="namedview57"
     showgrid="false"
     inkscape:zoom="0.19485634"
     inkscape:cx="-905.12386"
     inkscape:cy="234.31482"
     inkscape:window-x="1554"
     inkscape:window-y="0"
     inkscape:window-maximized="0"
     inkscape:current-layer="svg55" /><g
     id="Abstandsregel"
     display="none"
     style="display:none"
     transform="translate(-119.93,-124.325)"><path
       display="inline"
       d="m 119.795,271.389 c 0,10.606 -1.992,19.806 -5.977,27.598 -3.984,7.793 -9.17,14.181 -15.557,19.16 -6.445,4.98 -13.682,8.701 -21.709,11.162 C 68.525,331.77 60.234,333 51.68,333 H 0 v -6.24 c 1.699,0 3.912,-0.161 6.637,-0.483 2.725,-0.321 4.525,-0.688 5.404,-1.099 1.758,-0.761 3.034,-1.89 3.825,-3.384 0.791,-1.494 1.185,-3.296 1.185,-5.405 v -90 c 0,-1.991 -0.338,-3.779 -1.01,-5.361 -0.674,-1.582 -2.008,-2.842 -4,-3.779 -1.816,-0.879 -3.779,-1.523 -5.889,-1.934 -2.109,-0.409 -3.926,-0.673 -5.449,-0.791 v -6.24 h 54.492 c 7.5,0 14.883,1.158 22.148,3.472 7.266,2.315 13.594,5.436 18.984,9.36 7.324,5.216 13.066,12.041 17.227,20.479 4.161,8.438 6.241,18.368 6.241,29.794 z m -21.533,-0.044 c 0,-8.372 -1.113,-15.94 -3.34,-22.702 -2.227,-6.762 -5.479,-12.661 -9.756,-17.697 -4.043,-4.801 -9.008,-8.576 -14.896,-11.328 -5.889,-2.752 -12.438,-4.128 -19.645,-4.128 -2.402,0 -5.112,0.044 -8.129,0.132 -3.02,0.088 -5.26,0.162 -6.725,0.22 v 95.812 c 0,5.329 1.554,9.018 4.658,11.066 3.105,2.049 7.881,3.073 14.326,3.073 7.441,0 13.945,-1.317 19.512,-3.951 5.567,-2.634 10.078,-6.294 13.535,-10.978 3.633,-4.918 6.285,-10.611 7.955,-17.082 1.671,-6.469 2.505,-13.947 2.505,-22.437 z"
       id="path43"
       inkscape:connector-curvature="0"
       style="display:inline;fill:#9c9e9f" /><path
       display="inline"
       d="m 1457.484,289.951 c 0,10.606 -1.992,19.806 -5.977,27.598 -3.984,7.793 -9.17,14.181 -15.557,19.16 -6.445,4.98 -13.682,8.701 -21.709,11.162 -8.027,2.461 -16.318,3.691 -24.873,3.691 h -51.68 v -6.24 c 1.699,0 3.912,-0.161 6.637,-0.483 2.725,-0.321 4.525,-0.688 5.404,-1.099 1.758,-0.761 3.033,-1.89 3.824,-3.384 0.791,-1.494 1.186,-3.296 1.186,-5.405 v -90 c 0,-1.991 -0.338,-3.779 -1.01,-5.361 -0.674,-1.582 -2.008,-2.841 -4,-3.779 -1.816,-0.879 -3.779,-1.523 -5.889,-1.934 -2.109,-0.409 -3.926,-0.673 -5.449,-0.791 v -6.24 h 54.492 c 7.5,0 14.883,1.158 22.148,3.472 7.266,2.315 13.594,5.436 18.984,9.36 7.324,5.216 13.066,12.041 17.227,20.479 4.161,8.438 6.242,18.368 6.242,29.794 z m -21.533,-0.044 c 0,-8.371 -1.113,-15.939 -3.34,-22.702 -2.227,-6.762 -5.479,-12.66 -9.756,-17.695 -4.043,-4.802 -9.008,-8.577 -14.896,-11.329 -5.889,-2.752 -12.438,-4.128 -19.645,-4.128 -2.402,0 -5.112,0.044 -8.129,0.132 -3.02,0.088 -5.26,0.162 -6.725,0.22 v 95.812 c 0,5.329 1.553,9.018 4.658,11.066 3.105,2.048 7.881,3.073 14.326,3.073 7.441,0 13.945,-1.317 19.512,-3.951 5.567,-2.634 10.078,-6.294 13.535,-10.978 3.633,-4.918 6.285,-10.611 7.955,-17.082 1.671,-6.469 2.505,-13.948 2.505,-22.438 z"
       id="path45"
       inkscape:connector-curvature="0"
       style="display:inline;fill:#9c9e9f" /><path
       display="inline"
       d="m 239.59,63.105 c 0,10.606 -1.992,19.806 -5.977,27.598 -3.984,7.793 -9.17,14.181 -15.557,19.16 -6.445,4.98 -13.682,8.701 -21.709,11.162 -8.027,2.461 -16.318,3.691 -24.873,3.691 h -51.68 v -6.24 c 1.699,0 3.912,-0.161 6.637,-0.483 2.726,-0.321 4.525,-0.688 5.404,-1.099 1.758,-0.761 3.033,-1.89 3.824,-3.384 0.791,-1.494 1.186,-3.296 1.186,-5.405 v -90 c 0,-1.991 -0.338,-3.779 -1.01,-5.361 -0.674,-1.582 -2.008,-2.841 -4,-3.779 C 130.019,8.086 128.056,7.443 125.946,7.031 123.837,6.622 122.02,6.358 120.497,6.24 V 0 h 54.493 c 7.5,0 14.882,1.158 22.147,3.472 7.266,2.315 13.594,5.436 18.984,9.36 7.324,5.216 13.066,12.042 17.227,20.479 4.162,8.437 6.242,18.369 6.242,29.794 z m -21.533,-0.043 c 0,-8.372 -1.113,-15.939 -3.34,-22.701 -2.226,-6.763 -5.479,-12.661 -9.756,-17.696 -4.043,-4.802 -9.008,-8.576 -14.896,-11.329 -5.889,-2.752 -12.438,-4.127 -19.645,-4.127 -2.402,0 -5.111,0.043 -8.129,0.131 -3.02,0.088 -5.259,0.162 -6.725,0.22 v 95.812 c 0,5.329 1.553,9.018 4.658,11.066 3.105,2.048 7.881,3.073 14.326,3.073 7.441,0 13.945,-1.317 19.512,-3.951 5.567,-2.634 10.078,-6.293 13.535,-10.977 3.633,-4.918 6.285,-10.612 7.955,-17.082 1.67,-6.47 2.505,-13.949 2.505,-22.439 z"
       id="path47"
       inkscape:connector-curvature="0"
       style="display:inline;fill:#9c9e9f" /><path
       display="inline"
       d="m 239.59,516.973 c 0,10.605 -1.992,19.806 -5.977,27.598 -3.984,7.793 -9.17,14.18 -15.557,19.16 -6.445,4.98 -13.682,8.702 -21.709,11.162 -8.027,2.461 -16.318,3.692 -24.873,3.692 h -51.68 v -6.241 c 1.699,0 3.912,-0.161 6.637,-0.483 2.726,-0.321 4.525,-0.688 5.404,-1.099 1.758,-0.761 3.033,-1.89 3.824,-3.384 0.791,-1.494 1.186,-3.295 1.186,-5.405 v -90 c 0,-1.992 -0.338,-3.78 -1.01,-5.362 -0.674,-1.582 -2.008,-2.841 -4,-3.779 -1.816,-0.879 -3.779,-1.523 -5.889,-1.934 -2.109,-0.409 -3.926,-0.673 -5.449,-0.792 v -6.24 h 54.493 c 7.5,0 14.882,1.157 22.147,3.472 7.266,2.315 13.594,5.436 18.984,9.36 7.324,5.216 13.066,12.041 17.227,20.478 4.162,8.439 6.242,18.371 6.242,29.797 z m -21.533,-0.044 c 0,-8.372 -1.113,-15.94 -3.34,-22.702 -2.226,-6.762 -5.479,-12.66 -9.756,-17.696 -4.043,-4.802 -9.008,-8.577 -14.896,-11.329 -5.889,-2.752 -12.438,-4.128 -19.645,-4.128 -2.402,0 -5.111,0.044 -8.129,0.132 -3.02,0.088 -5.259,0.162 -6.725,0.219 v 95.812 c 0,5.329 1.553,9.018 4.658,11.066 3.105,2.048 7.881,3.073 14.326,3.073 7.441,0 13.945,-1.317 19.512,-3.951 5.566,-2.633 10.078,-6.294 13.535,-10.977 3.633,-4.918 6.285,-10.611 7.955,-17.082 1.671,-6.469 2.505,-13.948 2.505,-22.437 z"
       id="path49"
       inkscape:connector-curvature="0"
       style="display:inline;fill:#9c9e9f" /></g><g
     id="g862"
     inkscape:export-filename="C:\Users\vesh\Documents\logo_ducatus.png"
     inkscape:export-xdpi="96"
     inkscape:export-ydpi="96"><g
       transform="translate(-119.93,-124.325)"
       id="Ebene_1"><g
         id="g16"><path
           style="fill:#be0a26"
           inkscape:connector-curvature="0"
           id="path2"
           d="m 267.657,251.925 c 3.575,-14.808 -9.886,-19.06 -11.978,-30.694 -0.958,-0.042 -1.037,-0.96 -2.246,-0.749 0.053,8.624 8.588,13.206 10.481,20.963 0.783,3.203 -2.664,10.188 3.743,10.48 z" /><path
           style="fill:#be0a26"
           inkscape:connector-curvature="0"
           id="path4"
           d="m 214.503,239.198 c -2.099,-9.757 10.962,-10.374 19.465,-11.978 -8.786,-7.637 -38.526,5.088 -19.465,11.978 z" /><path
           style="fill:#be0a26"
           inkscape:connector-curvature="0"
           id="path6"
           d="m 251.188,249.68 c 1.892,0.995 5.947,2.489 8.235,0.748 2.337,-11.371 -5.629,-18.791 -11.23,-24.706 2.403,7.317 14.344,18.376 2.995,23.958 z" /><path
           style="fill:#be0a26"
           inkscape:connector-curvature="0"
           id="path8"
           d="m 245.198,259.411 c 0.273,2.222 1.298,3.694 2.994,4.492 4.632,-13.417 -6.428,-17.491 -19.465,-15.722 4.086,5.148 7.255,11.214 16.471,11.23 z m 0,-4.491 c -4.162,0.418 -7.14,-0.347 -7.486,-3.744 3.757,-0.014 7.924,-0.439 7.486,3.744 z" /><path
           style="fill:#be0a26"
           inkscape:connector-curvature="0"
           id="path10"
           d="m 251.936,254.171 c 0.392,6.433 -1.239,12.064 0.749,14.225 -0.512,1.484 -4.459,-0.467 -3.743,2.246 -0.032,1.03 0.354,1.644 0.748,2.247 4.958,-3.097 10.144,-15.581 2.246,-18.718 z" /><path
           style="fill:#be0a26"
           inkscape:connector-curvature="0"
           id="path12"
           d="m 221.989,256.417 c -4.063,11.36 10.735,14.174 17.968,14.225 -6.531,-4.2 -14.908,-6.554 -17.968,-14.225 z" /><path
           style="fill:#be0a26"
           inkscape:connector-curvature="0"
           id="path14"
           d="m 249.689,291.604 c -3.569,-1.747 -10.551,2.047 -12.727,-2.246 -0.162,-2.906 4.518,-0.971 4.492,-3.743 -4.211,-3.616 -9.282,8.473 -16.471,2.246 -0.168,1.416 0.844,1.651 0.748,2.995 2.363,0.367 2.645,-1.348 5.241,-0.749 1.507,1.988 0.028,6.96 2.246,8.235 1.601,-4.705 14.07,-0.844 16.471,-6.738 z" /></g><g
         id="g32"><path
           inkscape:connector-curvature="0"
           id="path18"
           d="m 622.387,289.951 c 0,10.606 -1.992,19.806 -5.977,27.598 -3.984,7.793 -9.17,14.181 -15.557,19.16 -6.445,4.98 -13.682,8.701 -21.709,11.162 -8.027,2.461 -16.318,3.691 -24.873,3.691 h -51.68 v -6.24 c 1.699,0 3.912,-0.161 6.637,-0.483 2.725,-0.321 4.525,-0.688 5.404,-1.099 1.758,-0.761 3.033,-1.89 3.824,-3.384 0.791,-1.494 1.186,-3.296 1.186,-5.405 v -90 c 0,-1.991 -0.338,-3.779 -1.01,-5.361 -0.674,-1.582 -2.008,-2.841 -4,-3.779 -1.816,-0.879 -3.779,-1.523 -5.889,-1.934 -2.109,-0.409 -3.926,-0.673 -5.449,-0.791 v -6.24 h 54.492 c 7.5,0 14.883,1.158 22.148,3.472 7.266,2.315 13.594,5.436 18.984,9.36 7.324,5.216 13.066,12.041 17.227,20.479 4.161,8.438 6.242,18.368 6.242,29.794 z m -21.533,-0.044 c 0,-8.371 -1.113,-15.939 -3.34,-22.702 -2.227,-6.762 -5.479,-12.66 -9.756,-17.695 -4.043,-4.802 -9.008,-8.577 -14.896,-11.329 -5.889,-2.752 -12.438,-4.128 -19.645,-4.128 -2.402,0 -5.111,0.044 -8.129,0.132 -3.02,0.088 -5.26,0.162 -6.725,0.22 v 95.812 c 0,5.329 1.553,9.018 4.658,11.066 3.105,2.048 7.881,3.073 14.326,3.073 7.441,0 13.945,-1.317 19.512,-3.951 5.567,-2.634 10.078,-6.294 13.535,-10.978 3.633,-4.918 6.285,-10.611 7.955,-17.082 1.671,-6.469 2.505,-13.948 2.505,-22.438 z" /><path
           inkscape:connector-curvature="0"
           id="path20"
           d="m 763.891,233.086 c -1.641,0.059 -4.043,0.411 -7.207,1.055 -3.164,0.646 -5.742,1.612 -7.734,2.9 -1.992,1.349 -3.369,4.131 -4.131,8.35 -0.762,4.219 -1.143,9.375 -1.143,15.469 v 54.229 c 0,6.914 -1.436,12.92 -4.307,18.018 -2.871,5.098 -6.65,9.287 -11.338,12.568 -4.629,3.164 -9.506,5.436 -14.633,6.812 -5.129,1.376 -10.035,2.065 -14.723,2.065 -7.5,0 -14.18,-0.981 -20.039,-2.944 -5.859,-1.963 -10.781,-4.614 -14.766,-7.954 -3.926,-3.34 -6.885,-7.163 -8.877,-11.47 -1.992,-4.307 -2.988,-8.803 -2.988,-13.491 v -73.74 c 0,-2.05 -0.338,-3.764 -1.01,-5.142 -0.674,-1.376 -2.037,-2.65 -4.088,-3.823 -1.465,-0.819 -3.34,-1.479 -5.625,-1.978 -2.285,-0.497 -4.16,-0.805 -5.625,-0.923 v -6.24 H 687.6 v 6.24 c -1.641,0.059 -3.705,0.323 -6.195,0.791 -2.492,0.468 -4.322,0.908 -5.494,1.317 -1.992,0.703 -3.326,1.874 -3.998,3.513 -0.674,1.64 -1.012,3.425 -1.012,5.356 v 68.852 c 0,3.337 0.365,6.836 1.1,10.495 0.732,3.66 2.182,7.069 4.35,10.23 2.285,3.223 5.391,5.856 9.316,7.905 3.925,2.049 9.316,3.073 16.172,3.073 6.445,0 11.852,-1.024 16.217,-3.073 4.363,-2.049 7.807,-4.742 10.326,-8.081 2.402,-3.161 4.102,-6.468 5.098,-9.923 0.996,-3.454 1.494,-6.938 1.494,-10.451 v -51.113 c 0,-6.499 -0.469,-11.81 -1.406,-15.938 -0.938,-4.128 -2.314,-6.836 -4.131,-8.124 -2.051,-1.464 -4.848,-2.605 -8.393,-3.425 -3.547,-0.819 -6.256,-1.287 -8.131,-1.405 v -6.24 h 50.977 v 6.24 z" /><path
           inkscape:connector-curvature="0"
           id="path22"
           d="m 828.795,354.551 c -7.434,0 -14.562,-1.467 -21.383,-4.397 -6.821,-2.93 -12.867,-7.152 -18.135,-12.664 -5.211,-5.512 -9.369,-12.239 -12.471,-20.185 -3.104,-7.945 -4.654,-16.901 -4.654,-26.868 0,-9.968 1.521,-19.012 4.566,-27.135 3.043,-8.12 7.258,-15.111 12.645,-20.975 5.326,-5.803 11.619,-10.289 18.879,-13.456 7.258,-3.167 15.016,-4.75 23.27,-4.75 6.146,0 11.707,0.763 16.684,2.285 4.975,1.524 9.717,3.663 14.225,6.416 l 3.6,-5.977 h 7.031 l 0.791,44.473 h -7.207 c -0.936,-4.335 -2.342,-9.038 -4.215,-14.106 -1.873,-5.067 -4.066,-9.36 -6.582,-12.876 -2.811,-3.983 -6.146,-7.104 -10.008,-9.36 -3.863,-2.255 -8.281,-3.384 -13.256,-3.384 -5.676,0 -10.959,1.261 -15.846,3.782 -4.887,2.521 -9.115,6.246 -12.684,11.17 -3.395,4.752 -6.059,10.792 -7.99,18.121 -1.93,7.331 -2.896,15.51 -2.896,24.541 0,7.975 1.01,15.291 3.029,21.946 2.018,6.655 4.902,12.505 8.648,17.547 3.744,4.985 8.178,8.884 13.299,11.699 5.121,2.815 10.842,4.222 17.164,4.222 4.742,0 9.102,-0.747 13.082,-2.241 3.979,-1.494 7.432,-3.472 10.359,-5.933 2.926,-2.578 5.5,-5.507 7.725,-8.789 2.225,-3.281 4.039,-6.855 5.443,-10.723 l 6.592,3.164 c -5.033,12.363 -11.709,21.196 -20.021,26.499 -8.315,5.302 -18.208,7.954 -29.684,7.954 z" /><path
           inkscape:connector-curvature="0"
           id="path24"
           d="m 1005.766,351.562 h -51.84 v -6.24 c 4.57,-0.293 8.363,-0.879 11.381,-1.758 3.018,-0.879 4.525,-1.963 4.525,-3.252 0,-0.527 -0.059,-1.172 -0.176,-1.934 -0.117,-0.761 -0.291,-1.436 -0.525,-2.021 l -10.33,-27.949 h -43.779 c -1.643,4.102 -2.977,7.677 -4.004,10.723 -1.027,3.047 -1.951,5.859 -2.773,8.438 -0.764,2.52 -1.291,4.57 -1.584,6.152 -0.295,1.582 -0.439,2.871 -0.439,3.867 0,2.344 1.846,4.161 5.537,5.449 3.691,1.289 7.852,2.052 12.482,2.285 v 6.24 H 877.27 v -6.24 c 1.525,-0.117 3.428,-0.453 5.713,-1.011 2.285,-0.557 4.16,-1.304 5.625,-2.241 2.344,-1.582 4.16,-3.237 5.449,-4.966 1.289,-1.728 2.549,-4.116 3.779,-7.163 6.27,-15.645 13.184,-33.223 20.742,-52.734 7.558,-19.511 14.297,-36.884 20.215,-52.119 h 7.031 l 41.572,107.578 c 0.879,2.285 1.875,4.131 2.988,5.537 1.113,1.406 2.666,2.783 4.658,4.131 1.348,0.821 3.105,1.509 5.273,2.065 2.168,0.558 3.984,0.865 5.449,0.923 v 6.24 z m -50.176,-50.976 -18.891,-48.397 -18.621,48.397 z" /><path
           inkscape:connector-curvature="0"
           id="path26"
           d="m 1106.273,260.684 h -6.064 c -0.527,-2.109 -1.482,-4.614 -2.863,-7.515 -1.379,-2.9 -2.92,-5.639 -4.623,-8.218 -1.764,-2.694 -3.686,-5.054 -5.771,-7.075 -2.084,-2.021 -4.096,-3.178 -6.033,-3.472 -1.822,-0.233 -4.111,-0.409 -6.871,-0.527 -2.76,-0.117 -5.316,-0.176 -7.664,-0.176 h -5.109 v 99.756 c 0,1.934 0.41,3.706 1.23,5.317 0.82,1.612 2.256,2.856 4.307,3.735 1.055,0.41 3.266,0.967 6.637,1.67 3.369,0.703 5.99,1.085 7.865,1.143 v 6.24 h -58.887 v -6.24 c 1.641,-0.117 4.145,-0.352 7.516,-0.703 3.369,-0.352 5.697,-0.791 6.986,-1.318 1.934,-0.761 3.354,-1.859 4.264,-3.296 0.908,-1.436 1.361,-3.354 1.361,-5.757 V 233.701 h -5.098 c -1.816,0 -4.072,0.044 -6.768,0.132 -2.696,0.088 -5.273,0.279 -7.734,0.571 -1.934,0.234 -3.941,1.393 -6.02,3.472 -2.08,2.081 -4,4.438 -5.758,7.075 -1.758,2.637 -3.311,5.436 -4.658,8.394 -1.348,2.959 -2.285,5.405 -2.812,7.339 h -6.152 v -33.838 h 108.721 v 33.838 z" /><path
           inkscape:connector-curvature="0"
           id="path28"
           d="m 1242.328,233.086 c -1.641,0.059 -4.043,0.411 -7.207,1.055 -3.164,0.646 -5.742,1.612 -7.734,2.9 -1.992,1.349 -3.369,4.131 -4.131,8.35 -0.762,4.219 -1.143,9.375 -1.143,15.469 v 54.229 c 0,6.914 -1.436,12.92 -4.307,18.018 -2.871,5.098 -6.65,9.287 -11.338,12.568 -4.629,3.164 -9.506,5.436 -14.633,6.812 -5.129,1.376 -10.035,2.065 -14.723,2.065 -7.5,0 -14.18,-0.981 -20.039,-2.944 -5.859,-1.963 -10.781,-4.614 -14.766,-7.954 -3.926,-3.34 -6.885,-7.163 -8.877,-11.47 -1.992,-4.307 -2.988,-8.803 -2.988,-13.491 v -73.74 c 0,-2.05 -0.338,-3.764 -1.01,-5.142 -0.674,-1.376 -2.037,-2.65 -4.088,-3.823 -1.465,-0.819 -3.34,-1.479 -5.625,-1.978 -2.285,-0.497 -4.16,-0.805 -5.625,-0.923 v -6.24 h 51.943 v 6.24 c -1.641,0.059 -3.705,0.323 -6.195,0.791 -2.492,0.468 -4.322,0.908 -5.494,1.317 -1.992,0.703 -3.326,1.874 -3.998,3.513 -0.674,1.64 -1.012,3.425 -1.012,5.356 v 68.852 c 0,3.337 0.365,6.836 1.1,10.495 0.732,3.66 2.182,7.069 4.35,10.23 2.285,3.223 5.391,5.856 9.316,7.905 3.925,2.049 9.316,3.073 16.172,3.073 6.445,0 11.852,-1.024 16.217,-3.073 4.363,-2.049 7.807,-4.742 10.326,-8.081 2.402,-3.161 4.102,-6.468 5.098,-9.923 0.996,-3.454 1.494,-6.938 1.494,-10.451 v -51.113 c 0,-6.499 -0.469,-11.81 -1.406,-15.938 -0.938,-4.128 -2.314,-6.836 -4.131,-8.124 -2.051,-1.464 -4.848,-2.605 -8.393,-3.425 -3.547,-0.819 -6.256,-1.287 -8.131,-1.405 v -6.24 h 50.977 v 6.24 z" /><path
           inkscape:connector-curvature="0"
           id="path30"
           d="m 1329.955,294.346 c 2.637,2.931 4.584,6.139 5.846,9.624 1.26,3.487 1.889,7.545 1.889,12.173 0,11.017 -4.072,20.098 -12.217,27.246 -8.145,7.149 -18.252,10.723 -30.322,10.723 -5.566,0 -11.133,-0.865 -16.699,-2.593 -5.566,-1.728 -10.371,-3.823 -14.414,-6.284 l -3.779,6.416 h -7.031 l -1.23,-42.715 h 7.119 c 1.465,5.273 3.178,10.034 5.143,14.282 1.963,4.249 4.555,8.218 7.777,11.909 3.047,3.458 6.605,6.211 10.68,8.262 4.072,2.052 8.803,3.076 14.193,3.076 4.043,0 7.572,-0.527 10.592,-1.583 3.018,-1.057 5.463,-2.554 7.338,-4.489 1.875,-1.937 3.266,-4.21 4.176,-6.821 0.908,-2.611 1.361,-5.618 1.361,-9.021 0,-4.986 -1.406,-9.636 -4.219,-13.948 -2.812,-4.312 -7.002,-7.583 -12.568,-9.814 -3.809,-1.516 -8.174,-3.194 -13.096,-5.032 -4.922,-1.837 -9.17,-3.574 -12.744,-5.208 -7.031,-3.163 -12.494,-7.308 -16.391,-12.433 -3.898,-5.125 -5.846,-11.818 -5.846,-20.078 0,-4.744 0.967,-9.167 2.9,-13.267 1.933,-4.1 4.688,-7.762 8.262,-10.984 3.398,-3.046 7.412,-5.433 12.041,-7.16 4.629,-1.727 9.463,-2.593 14.502,-2.593 5.742,0 10.885,0.879 15.426,2.637 4.539,1.758 8.686,3.81 12.436,6.152 l 3.604,-5.977 h 7.031 l 0.703,41.396 h -7.119 c -1.289,-4.746 -2.738,-9.286 -4.35,-13.623 -1.613,-4.335 -3.707,-8.262 -6.285,-11.777 -2.52,-3.397 -5.596,-6.108 -9.229,-8.13 -3.633,-2.022 -8.086,-3.032 -13.359,-3.032 -5.566,0 -10.312,1.788 -14.238,5.361 -3.926,3.575 -5.889,7.94 -5.889,13.096 0,5.392 1.26,9.859 3.779,13.403 2.52,3.546 6.182,6.46 10.986,8.745 4.277,2.052 8.482,3.823 12.613,5.317 4.131,1.494 8.129,3.091 11.996,4.79 3.516,1.524 6.9,3.252 10.152,5.186 3.252,1.934 6.078,4.191 8.48,6.768 z" /></g><g
         id="g40"><path
           style="fill:#be0a26"
           inkscape:connector-curvature="0"
           id="path34"
           d="m 436.234,288.102 c -0.006,-0.895 -0.016,-1.782 -0.031,-2.651 -0.003,-0.187 -0.002,-0.375 -0.006,-0.562 l -0.006,0.003 c -0.094,-4.597 -0.318,-8.723 -0.605,-11.622 l -0.006,-0.004 c -0.084,-0.973 -0.168,-1.944 -0.266,-2.911 l 0.008,-0.004 c -0.121,-1.217 -0.251,-2.43 -0.395,-3.636 -0.574,-4.749 -1.263,-9.451 -2.199,-14.021 -0.098,-0.485 -0.205,-0.964 -0.307,-1.447 l -101.908,103.316 -0.06,-0.061 -3.301,3.364 c -16.247,18.452 -39.681,29.276 -67.029,29.452 4.506,-10.994 14.891,-15.977 22.508,-23.729 7.592,-7.725 8.016,-17.92 11.979,-30.003 0.752,4.488 -1.65,12.103 1.497,14.196 9.438,-8.74 14.054,-27.062 8.235,-42.688 1.958,-0.876 3.221,2.302 2.994,-0.756 1.147,-14.375 -4.863,-25.583 -9.732,-31.447 3.587,1.155 4.988,4.493 8.984,5.238 -1.047,-14.896 -12.103,-23.979 -17.219,-36.685 -0.721,-1.789 0.031,-3.764 -0.749,-5.99 -2.661,-7.598 -11.901,-11.897 -13.476,-17.969 -1.665,-6.422 2.045,-12.238 -1.498,-17.968 -4.081,-1.855 -8.843,0.042 -11.979,1.417 -2.255,-3.33 -4.61,-6.609 -7.226,-9.609 h 5.006 c 26.825,0 49.931,10.212 66.239,27.822 l 54.705,-55.446 C 350.139,138.645 309.151,124.325 261.328,124.325 H 119.93 v 330 h 138.107 c 1.183,0 2.357,-0.017 3.531,-0.033 l 0.004,0.033 c 90.039,0 155.731,-50.762 171.278,-128.367 0.93,-4.552 1.487,-9.303 2.06,-14.031 0.144,-1.206 0.291,-2.409 0.412,-3.626 l -0.008,-0.004 c 0.194,-1.932 0.223,-2.258 0.34,-3.731 0.396,-4.472 0.566,-9.474 0.583,-14.285 10e-4,-0.207 0.007,-0.412 0.007,-0.619 l -0.004,-0.002 c 0,-0.224 -0.002,-0.444 -0.002,-0.667 l 0.006,-0.003 c 0,-0.297 -0.009,-0.592 -0.01,-0.888 z M 268.406,366.47 c 2.291,-9.688 5.284,-18.672 7.486,-28.449 4.839,-2.148 6.978,-6.998 8.984,-11.979 2.853,18.327 -7.343,34.079 -16.47,40.428 z m 31.444,-35.936 c -2.437,-8.865 -8.909,-19.732 -4.492,-30.695 4.743,7.111 9.234,20.822 4.492,30.695 z m 4.492,-32.941 c -4.586,-1.161 -8.438,-9.524 -8.984,-17.219 5.345,3.389 6.332,11.136 8.984,17.219 z m -12.727,-39.678 c 7.687,0.797 9.996,6.972 11.229,14.224 -4.323,-4.16 -12.149,-4.821 -11.229,-14.224 z m -68.91,-66.589 c 0.6,2 2.467,4.148 2.279,6.533 -2.516,-2.225 -5.015,-4.533 -7.688,-6.533 z m 0.04,171.514 c -1.527,9.959 -3.13,18.486 -6.769,24.486 h -7.264 c 3.488,-17 -4.692,-41.659 9.752,-49.19 -6.84,1.862 -11.535,7.131 -14.535,13.881 V 313.11 c 4,-2.146 9.132,-4.335 13.787,-5.784 -2.671,8.059 -9.112,12.458 -12.837,19.465 7.143,0.086 12.733,-7.623 22.405,-7.487 -0.889,4.729 -5.687,9.142 -4.52,13.476 4.132,-0.86 3.816,-6.151 8.222,-6.737 -2.85,12.319 -6.096,22.816 -8.241,36.797 z m 15.716,-35.3 c -0.559,-2.305 2.055,-1.439 1.496,-3.744 -7.107,-5.12 -8.051,-28.341 -9.754,-25.455 l -15.7,-0.749 c -1.088,-1.156 -3.833,-0.658 -5.989,-0.748 0.048,-4.444 1.999,-6.984 1.498,-11.979 -2.295,0.701 -1.944,3.828 -4.273,4.492 -0.737,0.236 -1.809,0.347 -1.809,0.386 v -26.326 c 1.063,5.014 4.136,9.474 6.082,12.909 h 4.491 c 1.163,-3 -0.627,0.852 0.535,-2.307 -0.535,-2.033 0,0.152 -0.535,-1.881 -4.699,-4.034 -5.134,-12.487 -10.48,-15.874 -0.039,0.15 -0.059,0.299 -0.093,0.449 v -11.708 c 2,-0.244 4.514,-1.05 6.52,-2.812 -2.028,-1.113 -4.52,-1.977 -6.52,-2.692 v -14.237 c 0,-0.367 1.624,-0.92 2.027,-1.788 -0.648,-0.412 -2.027,-0.751 -2.027,-1.029 v -4.316 c 0,0.034 1.855,0.069 2.775,0.104 -0.786,-0.938 -1.775,-1.69 -2.775,-2.302 v -7.786 c 1,0.517 2.784,1.133 4.055,1.853 0.857,2.355 -1.285,1.82 -1.607,2.995 4.117,3.869 11.211,4.706 17.914,5.988 -3.167,-6.316 -11.766,-7.227 -15.002,-13.475 14.154,-2.245 19.157,8.035 31.431,5.241 -2.175,-5.812 -7.879,-8.099 -9.739,-14.225 8.795,2.685 11.521,11.352 19.461,14.892 -2.172,-9.834 -13.858,-15.09 -24.047,-20.09 h 10.195 c 1.033,1 1.917,2.297 2.619,3.539 0.855,-0.758 0.645,-1.539 0.232,-3.539 h 3.401 c 7.233,7 13.195,15.271 18.825,23.834 3.06,-2.182 1.396,-9.045 3.744,-11.938 1.763,0.017 2.204,-1.269 4.491,-0.729 2.155,4.39 -0.796,9.522 -0.749,14.234 3.335,12.482 18.568,15.895 14.975,32.947 0.331,2.663 2.71,3.281 3.742,5.243 -1.187,4.054 -2.396,8.086 -2.994,12.728 -2.28,-1.213 -3.229,-3.758 -5.989,-4.492 1.159,-4.081 3.508,-6.972 4.492,-11.229 -0.729,-2.15 -8.362,-0.46 -11.229,0 0.338,10.99 11.216,17.659 12.727,29.947 1.764,0.016 2.204,-1.29 4.492,-0.749 0.932,2.565 5.279,7.68 0.748,8.983 0.244,1.754 3.266,0.728 3.744,2.246 0.127,4.121 -0.698,7.288 -4.492,7.487 2.402,3.195 0.761,7.304 -2.246,8.984 -5.009,-3.726 -9.168,-8.301 -12.727,-13.476 1.315,-4.672 6.201,-5.777 9.732,-8.235 -1.314,-5.923 -9.276,-5.199 -15.723,-5.989 -2.391,3.912 0.437,9.027 1.497,11.978 -1.525,3.424 -0.538,6.546 -3.095,7.392 0.16,-0.295 0.307,-0.453 0.386,-0.523 -0.234,0.15 -1.201,0.62 -3.756,0.819 -2.21,0.297 -3.154,-1.1 -3.471,0.685 -0.136,1.634 -2.139,-1.685 -2.65,0.204 1.998,1.328 -4.23,4.327 -2.548,1.245 -6.082,4.524 -13.874,6.553 -17.807,0.661 -0.152,-2.399 3.271,-1.221 2.994,-3.743 -4.104,-1.36 -1.885,3.605 -5.989,2.246 1.002,4.238 2.027,8.455 3.744,11.979 14.543,8.345 33.217,-20.874 43.422,-3.744 2.917,4.897 1.548,12.694 -1.497,17.22 -1.038,-1.209 -2.121,-2.371 -2.994,-3.744 -1.681,2.562 -3.413,5.072 -5.99,6.738 -2.702,-0.792 -1.543,-5.442 -4.49,-5.989 -3.03,2.21 -3.232,7.297 -8.232,7.486 v -5.989 c -4,-0.478 -6.322,6.03 -11.98,5.989 0.113,-2.381 1.696,-3.294 1.496,-5.989 -3.3,0.191 -4.692,2.297 -8.985,1.497 z m 36.684,-70.375 c -0.524,-2.304 -0.524,-1.438 0,-3.742 1.062,0.063 2.119,0.123 2.246,-0.749 2.788,0.604 0.144,4.569 -2.246,4.491 z M 258.39,387.326 h -3.46 -11.545 c 5.438,-5 10.768,-9.684 15.289,-15.387 -0.702,3.376 -1.686,11.387 -0.284,15.387 z" /><path
           style="fill:#be0a26"
           inkscape:connector-curvature="0"
           id="path36"
           d="m 346.086,255.023 61.225,-62.254 c -3.881,-5.501 -8.118,-10.72 -12.695,-15.638 l -57.193,57.967 c 3.536,6.121 6.445,12.785 8.663,19.925 z" /><path
           style="fill:#be0a26"
           inkscape:connector-curvature="0"
           id="path38"
           d="m 351.069,293.969 c -0.02,0.62 -0.06,1.227 -0.087,1.842 -0.199,3.748 -0.578,7.404 -1.098,10.98 l 44.434,-45.271 0.066,0.06 31.938,-32.042 c -2.424,-6.784 -5.271,-13.305 -8.521,-19.545 l -67.172,68.303 c 0.334,3.712 0.51,7.508 0.51,11.387 0,1.417 -0.023,2.832 -0.067,4.235 -0.002,0.016 -0.002,0.033 -0.003,0.051 z" /></g></g><g
       transform="translate(-119.93,-124.325)"
       id="Freiraum"><rect
         style="fill:none"
         id="rect52"
         height="578"
         width="1458"
         y="0.32600001"
         x="-0.07" /></g></g></svg>